<?xml version="1.0" standalone="no"?>
<!DOCTYPE svg PUBLIC "-//W3C//DTD SVG 1.1//EN" "http://www.w3.org/Graphics/SVG/1.1/DTD/svg11.dtd" >
<svg xmlns="http://www.w3.org/2000/svg">
<metadata></metadata>
<defs>
<font id="roccaregular" horiz-adv-x="1067" >
<font-face units-per-em="2048" ascent="1536" descent="-512" />
<missing-glyph horiz-adv-x="548" />
<glyph horiz-adv-x="2048" />
<glyph horiz-adv-x="2048" />
<glyph unicode="&#xd;" horiz-adv-x="2048" />
<glyph unicode=" "  horiz-adv-x="548" />
<glyph unicode="&#x09;" horiz-adv-x="548" />
<glyph unicode="&#xa0;" horiz-adv-x="548" />
<glyph unicode="!" horiz-adv-x="440" d="M80 27v182l29 29h180l28 -29v-182l-28 -27h-180zM80 1434h239l-14 -1104h-207z" />
<glyph unicode="&#x22;" horiz-adv-x="741" d="M0 1432h61h207q-14 -25 -20 -47.5t-9 -55.5t-3 -77v-111v-125l-164 84v45q0 68 -6.5 111.5t-16.5 74.5t-23.5 53.5t-25.5 47.5zM354 1432h62h207q-14 -25 -20.5 -47.5t-9.5 -55.5t-3 -77v-111v-125l-164 84v45q0 68 -6 111.5t-16.5 74.5t-23.5 53.5t-26 47.5z" />
<glyph unicode="#" horiz-adv-x="1370" d="M0 0q59 47 93 97t48 106l37 149q-47 -2 -87 -10t-79 -27v37v201q39 -20 79 -28.5t87 -8.5h43l68 270h-21q-94 0 -166 -34v34v203q76 -37 166 -37h64l43 172q27 109 -39 203h385q-59 -47 -94 -97t-49 -106l-43 -172h339l46 172q14 55 4.5 105.5t-43.5 97.5h383 q-59 -47 -92 -97t-48 -106l-45 -172h39q92 0 166 37v-237q-70 35 -166 34h-80l-69 -270h37q47 0 87 8t78 29v-238q-78 37 -165 37h-78l-37 -149q-29 -111 37 -203h-383q59 47 94 97t49 106l37 149h-342l-39 -149q-27 -109 39 -203h-383zM424 516h342l70 270h-342z" />
<glyph unicode="$" horiz-adv-x="1040" d="M96 416h305q-14 -20 -19 -40t-5 -38q0 -55 45 -91t108 -36q53 0 92.5 39t39.5 82q0 31 -27 72.5t-69 91t-94 105t-103 112.5q-49 55 -93.5 104t-78 95t-53 90.5t-19.5 87.5q0 68 23.5 125t64.5 101t95 75.5t118 46.5q-10 31 -24.5 53t-26.5 45h327q-14 -23 -27 -46.5 t-24 -53.5q102 -31 179 -109t100 -188q4 -25 6 -42.5t4 -30.5t7 -26.5t16 -31.5h-308q25 39 25 77q0 55 -46 91t-108 36q-27 0 -50 -11t-41.5 -27.5t-29 -39t-10.5 -42.5q0 -39 40 -94.5t99.5 -120t130 -134t130 -139t99.5 -134t40 -118.5v-18q0 -66 -22.5 -122t-61.5 -99 t-92 -74t-113 -43q10 -41 25.5 -67.5t31.5 -55.5h-327q16 27 30.5 53.5t26.5 63.5q-113 18 -197.5 98t-105.5 197q-4 25 -6 42t-5 30.5t-7.5 26.5t-14.5 32z" />
<glyph unicode="%" horiz-adv-x="1341" d="M0 973v45q0 57 21.5 109.5t60.5 91t90 61.5t111 23q59 0 110 -22.5t90 -61.5t61.5 -90.5t22.5 -110.5v-45q0 -59 -22.5 -111.5t-60.5 -90.5t-90 -60.5t-111 -22.5t-110.5 22.5t-90.5 61.5t-60.5 90t-21.5 111zM111 0q27 25 48 47.5t42.5 55t47 76.5t62.5 112l457 850 q37 68 58.5 111.5t33.5 76.5t16.5 55.5t4.5 47.5h227h102q-27 -25 -48 -47.5t-43.5 -55.5t-48.5 -77t-62 -111l-459 -850q-37 -68 -58.5 -112t-34 -76.5t-16.5 -55t-4 -47.5h-100h-154h-71zM168 977l141 153q-16 4 -26 5q-47 0 -81 -34t-34 -83v-41zM252 860q20 -4 31 -4 q49 0 82.5 35t33.5 82v45v12zM690 283v45q0 57 21.5 109t60.5 91t90 61.5t111 22.5q59 0 110.5 -22.5t90.5 -61.5t61 -90t22 -110v-45q0 -59 -22.5 -110.5t-60 -90.5t-90 -60.5t-111.5 -21.5t-110.5 22.5t-90.5 60.5t-60.5 89t-21.5 111zM858 287l141 153q-16 4 -26 4 q-47 0 -81 -33.5t-34 -82.5v-41zM942 170q20 -4 31 -4q49 0 83 35t34 82v45v12z" />
<glyph unicode="&#x26;" horiz-adv-x="1656" d="M0 377q18 23 38.5 50.5t33.5 94.5l37 199h-15q-16 0 -33 -4q-8 -2 -12 -4q33 55 70 69l31 164q4 16 4 29.5v23.5q0 37 -7.5 55.5t-15.5 37.5h287q-8 -18 -15.5 -37t-7.5 -56v-23t4 -30l52 -270q27 0 71 10q-16 -16 -31.5 -28.5t-31.5 -22.5l22 -117q6 -33 14.5 -54.5 t18.5 -36.5t19.5 -26.5t19.5 -23.5h-195q6 16 11.5 31.5t5.5 40.5q0 20 -6 55l-21 102q-33 4 -64.5 21.5t-68.5 42.5l-29 -148q-4 -23 -7 -38t-3 -31t4 -34t13 -42h-193zM236 774q29 -8 50 -23.5t40 -29.5l-54 254zM571 1092h205l135 -392l2 273q0 51 -13 73.5t-26 45.5h146 h51q-14 -23 -26.5 -50.5t-12.5 -95.5v-424q0 -68 12.5 -95.5t26.5 -49.5h-205q8 10 13.5 19.5t5.5 19.5t-2 16l-152 459l-2 -369q0 -68 12.5 -95.5t26.5 -49.5h-195q10 20 23.5 41.5t13.5 68.5v459q0 68 -12 95.5t-27 50.5zM1096 377q14 23 26.5 50.5t12.5 94.5v424 q0 68 -12.5 95.5t-26.5 50.5h241q41 0 78 -16.5t64.5 -44t44 -64.5t16.5 -78v-309q0 -43 -16.5 -80t-44 -64.5t-64.5 -43t-78 -15.5h-143h-59h-39zM1253 496h84q35 0 58.5 24.5t23.5 59.5v309q0 35 -23.5 59.5t-58.5 24.5h-84v-477z" />
<glyph unicode="'" horiz-adv-x="387" d="M0 1432h61h207q-14 -25 -20 -47.5t-9 -55.5t-3 -77v-111v-125l-164 84v45q0 68 -6.5 111.5t-16.5 74.5t-23.5 53.5t-25.5 47.5z" />
<glyph unicode="(" horiz-adv-x="548" />
<glyph unicode=")" horiz-adv-x="548" />
<glyph unicode="*" horiz-adv-x="520" d="M2 1120l4 29l84 59l-84 60l-4 28l57 82l31 4l49 -36v63l23 21h98l21 -21v-63l51 36l28 -4l60 -82l-6 -28l-82 -60l82 -59l6 -29l-60 -82l-28 -4l-51 37v-63l-21 -21h-98l-23 21v63l-49 -37l-31 4z" />
<glyph unicode="+" horiz-adv-x="741" d="M0 645v41v225q82 -41 184 -41h45v54q0 102 -41 184h265q-41 -82 -41 -184v-54h45q102 0 184 41v-266q-82 41 -184 41h-45v-35q0 -102 41 -184h-41h-224q41 82 41 184v35h-45q-102 0 -184 -41z" />
<glyph unicode="," horiz-adv-x="360" d="M0 27v182l29 29h180l29 -29v-182l-29 -27l-43 -139h-127l43 139h-53z" />
<glyph unicode="-" horiz-adv-x="786" d="M0 621v41v245q82 -41 184 -41h293q102 0 185 41v-286q-82 41 -185 41h-293q-102 0 -184 -41z" />
<glyph unicode="." horiz-adv-x="360" d="M0 27v182l29 29h180l29 -29v-182l-29 -27h-180z" />
<glyph unicode="/" horiz-adv-x="1161" d="M2 0q27 25 48.5 47.5t43 55t47 76.5t62.5 112l456 850q37 68 58.5 111.5t34 76.5t16.5 55.5t4 47.5h227h103q-27 -25 -48.5 -47.5t-44 -55.5t-48 -77t-62.5 -111l-459 -850q-37 -68 -58.5 -112t-33.5 -76.5t-16 -55t-4 -47.5h-101h-153h-72z" />
<glyph unicode="0" d="M129 408v620q0 82 32 155.5t86 129t128 88.5t157 33q86 0 159 -33t128 -86q55 -55 87 -129t32 -158v-620q0 -84 -32 -158t-87 -129t-129 -87t-158 -32t-157.5 32t-127.5 87t-86 129t-32 158zM369 414l202 774q-18 6 -39 6q-68 0 -115.5 -48t-47.5 -118v-614zM487 248 q20 -6 45 -6q35 0 65 13t52.5 36.5t35.5 53.5t13 63v620v16z" />
<glyph unicode="1" d="M293 1141q18 25 36.5 48t32 55t22.5 77t9 111h305v-1141q0 -68 6.5 -112t17.5 -76.5t24.5 -55t27.5 -47.5h-102h-187h-104q14 25 27.5 47.5t24.5 55t18.5 76.5t7.5 112v850h-166z" />
<glyph unicode="2" d="M111 0q31 33 63.5 63.5t63.5 86.5q35 63 76.5 145t86.5 168t88 171t79 155.5t60.5 119.5t33.5 66q27 47 26 92q0 53 -38 89t-97 36q-72 0 -114 -50t-42 -116q0 -4 1 -10t1 -10q4 -29 8.5 -46.5t18.5 -46.5h-301q10 25 15 47.5t5 45.5l2 20q8 82 43 155.5t89.5 129 t127 88.5t156.5 33q76 0 145.5 -27t122 -75t83 -116.5t30.5 -150.5q0 -51 -22 -100l-367 -723h111q68 0 111.5 7t76.5 18t55.5 24.5t46.5 27.5v-290v-27h-624h-221z" />
<glyph unicode="3" d="M115 449h286q-18 -53 -18 -95q10 -53 55 -92t107 -39q68 0 117 49.5t49 116.5v43q0 72 -50.5 119t-115.5 47h-109q-20 0 -35.5 -3t-38.5 -17v280q27 -16 36.5 -18t37.5 -2h109q66 0 116 47t50 119v43q0 68 -49 116.5t-117 48.5q-61 0 -106.5 -38.5t-55.5 -92.5 q0 -43 18 -94h-286q14 29 17 47.5t9 46.5q6 78 41 145.5t89.5 118t125 79t148.5 28.5q82 0 155.5 -33t129 -88t88 -129t32.5 -155v-43q0 -84 -32.5 -158t-86.5 -129q53 -53 86 -127t33 -158v-43q0 -82 -31.5 -154.5t-87 -126t-129 -85t-157.5 -31.5q-80 0 -151.5 27.5 t-125 76.5t-87.5 114.5t-40 143.5q-6 29 -9 47.5t-17 47.5z" />
<glyph unicode="4" d="M82 334v209q16 23 24.5 30t26.5 35l539 822h63h172v-834h2q27 0 37 2t35 16v-280q-23 14 -37 18t-35 4l-2 -65q-2 -68 4.5 -112t17.5 -76.5t25.5 -55t28.5 -47.5h-102h-187h-104q14 25 27.5 47.5t24.5 55t18.5 76.5t7.5 112v65h-512q-20 0 -35 -4t-39 -18zM408 596h260 v393z" />
<glyph unicode="5" d="M102 449h289q-18 -53 -18 -95q10 -53 57 -89t102 -36q39 0 72 17.5t56.5 45t36 64.5t12.5 74q0 41 -14.5 81t-44 70.5t-74 50t-105.5 19.5h-301v121v541v121h647h121v-279q4 -29 7 -47t18 -47h-285q20 49 20 94v39h-288v-303h122q98 0 174 -38t127.5 -102.5t78 -148.5 t26.5 -176v-31q0 -84 -33 -156.5t-88 -126t-129 -84t-156 -30.5q-80 0 -149.5 27.5t-123.5 74.5t-88 113t-42 141q-4 29 -8 47.5t-19 47.5z" />
<glyph unicode="6" d="M117 496q0 55 1 108t1 107v317q0 82 31.5 155.5t87 129t129 88.5t157.5 33q76 0 144.5 -28t122 -75t89.5 -111.5t46 -138.5q4 -29 7 -47t17 -47h-291q20 49 21 94q-16 49 -59 81t-97 32q-33 0 -62.5 -12.5t-53 -35t-37 -53t-13.5 -65.5v-231q76 35 166 34q80 0 153 -30.5 t129 -86t89 -129t33 -159.5v-31q0 -84 -32 -156.5t-87 -126t-129 -84t-156 -30.5t-155.5 26.5t-130.5 84.5q-41 39 -64.5 85t-36 95t-16.5 101t-4 106zM358 395q0 -70 48.5 -118t117.5 -48q68 0 116 48.5t48 117.5v31q0 35 -13 65.5t-36 53t-52.5 35t-62.5 12.5t-62.5 -12.5 t-53 -35t-37 -52t-13.5 -66.5v-31z" />
<glyph unicode="7" d="M119 1098q27 55 26 94v240h537h49h217l-397 -1162q-20 -57 -27.5 -98t-7.5 -70q0 -33 6 -55t13 -47h-109h-213h-78q23 25 44.5 47.5t43 55t44 76.5t44.5 112h2l308 901h-236q0 -45 21 -94h-287z" />
<glyph unicode="8" d="M111 391v39q0 86 31.5 160t86.5 129q2 2 4.5 3t4.5 5q-51 53 -80 125t-29 152v43q0 82 32 155.5t87 128.5t128 88t156 33q82 0 156 -33t129 -88t88 -129t33 -155v-43q0 -80 -29 -152t-80 -125q2 -6 9 -8q55 -55 86.5 -129t31.5 -160v-39q0 -84 -32.5 -157.5t-88 -127 t-129 -84t-157.5 -30.5h-33q-84 0 -157.5 30.5t-129 85t-87 127t-31.5 156.5zM350 391q0 -68 48 -118t118 -50h33q72 0 120 50.5t48 117.5v39q0 70 -49.5 119t-118.5 49h-8h-15h-10q-68 0 -117 -49t-49 -119v-39zM369 1004q0 -72 47 -119t112 -47h11q66 0 112.5 49t46.5 117 v43q0 66 -47 115.5t-119 49.5q-68 0 -115.5 -49t-47.5 -116v-43z" />
<glyph unicode="9" d="M125 997v31q0 82 31.5 155.5t87 129t129 88.5t157.5 33q80 0 155 -31t130 -88q41 -41 65.5 -87t38 -97.5t17.5 -104.5t4 -106t-2 -105.5t-2 -103.5v-316q0 -82 -32 -154.5t-87 -126t-129 -85t-158 -31.5q-78 0 -146.5 25.5t-121.5 71.5t-88 108.5t-45 138.5h244 q16 -47 59 -80t98 -33q66 0 116 48.5t50 117.5v232q-80 -35 -166 -35q-82 0 -155.5 30.5t-129 86t-88 129t-32.5 159.5zM365 997q0 -70 47.5 -118t117.5 -48q66 0 116 47.5t50 118.5v31q0 33 -13 63.5t-36.5 53t-53.5 36t-63 13.5q-35 0 -64.5 -13.5t-52 -37t-35.5 -53 t-13 -62.5v-31z" />
<glyph unicode=":" horiz-adv-x="335" d="M0 27v182l29 29h180l29 -29v-182l-29 -27h-180zM0 643v182l29 29h180l29 -29v-182l-29 -27h-180z" />
<glyph unicode=";" horiz-adv-x="335" d="M0 27v182l29 29h180l29 -29v-182l-29 -27l-43 -139h-127l43 139h-53zM0 643v182l29 29h180l29 -29v-182l-29 -27h-180z" />
<glyph unicode="&#x3c;" horiz-adv-x="641" d="M0 592v289q61 10 135 36.5t146.5 61.5t138 78t112.5 86v-236q-43 -2 -91 -20.5t-94 -44t-90 -52t-81 -45.5q37 -18 81 -46.5t90 -56.5t94 -48.5t91 -20.5v-227q-53 43 -116.5 82t-133 71.5t-141 56.5t-141.5 36z" />
<glyph unicode="=" horiz-adv-x="765" d="M0 446v256q43 -23 89 -24.5t95 -1.5h293q51 0 96 2t89 24v-256q-43 23 -88.5 26t-96.5 3h-293q-49 0 -95 -3t-89 -26zM0 827v256q43 -23 89 -24.5t95 -1.5h293q51 0 96 2t89 24v-256q-43 23 -88.5 26t-96.5 3h-293q-49 0 -95 -3t-89 -26z" />
<glyph unicode="&#x3e;" horiz-adv-x="618" d="M0 346v227q43 0 91 20.5t94 48.5t90 56.5t81 46.5q-37 18 -81 45t-90 52.5t-94 44t-91 20.5v236q45 -43 111.5 -86t139.5 -78t146.5 -61.5t134.5 -36.5v-289q-70 -12 -142.5 -36t-141 -56.5t-132 -71.5t-116.5 -82z" />
<glyph unicode="?" horiz-adv-x="894" d="M0 991q10 18 15 31.5t8.5 28t5.5 32t8 41.5q16 70 54 127.5t91.5 99.5t116.5 64.5t133 22.5q76 0 146.5 -26t123 -72t84 -107.5t31.5 -132.5q0 -80 -33 -158l-315 -539h-242q45 86 102.5 183.5t108.5 189.5t87 174t36 142q0 47 -29.5 75.5t-99.5 30.5q-63 0 -109.5 -37 t-46.5 -94q0 -39 23 -76h-299zM225 27v182l29 29h180l29 -29v-182l-29 -27h-180z" />
<glyph unicode="@" horiz-adv-x="1001" d="M0 377q10 12 20.5 23.5t20.5 26.5t18.5 37.5t14.5 57.5l35 199h-13q-16 0 -33 -4q-8 -2 -12 -4q29 53 70 69l31 164q4 16 4 29.5v23.5q0 37 -7.5 55.5t-17.5 37.5h289q-10 -18 -17.5 -37t-7.5 -56q0 -10 1 -23t3 -30l54 -270q16 0 32.5 3l38.5 7q-37 -33 -63 -51l22 -117 q6 -33 14.5 -54.5t17.5 -36.5t19.5 -26.5t20.5 -23.5h-195q4 16 9.5 31.5t5.5 40.5v25t-4 30l-21 102q-35 4 -66.5 21.5t-68.5 42.5l-29 -148q-8 -41 -8 -69q0 -16 3 -34t14 -42h-195zM236 774q29 -8 50 -23.5t40 -29.5l-52 254zM469 934v98v60h156h118h156v-60v-98 q-23 14 -50.5 26.5t-94.5 12.5h-11v-451q0 -68 12.5 -95.5t26.5 -49.5h-51h-94h-51q14 23 26.5 50.5t12.5 94.5v451h-11q-68 0 -95 -12.5t-50 -26.5z" />
<glyph unicode="A" horiz-adv-x="1183" d="M0 0q18 25 38.5 47.5t40 54t37 76.5t29.5 113l72 397h-27q-20 0 -36.5 -2t-28.5 -6l-25 -6q33 55 68 88t72 49l61 330q6 31 7 56.5t1 47.5q0 74 -15 112t-32 75h576q-16 -37 -31.5 -75t-15.5 -110q0 -23 1 -48t7 -58l104 -541q31 0 67 5t77 16q-70 -66 -127 -103l45 -233 q12 -66 28.5 -110t36 -74.5t40 -53t38.5 -47.5h-389q10 31 20.5 62.5t10.5 82.5q0 23 -2.5 49.5t-8.5 61.5l-41 203q-66 8 -130 44t-138 85l-57 -297q-10 -45 -14.5 -77t-4.5 -62q0 -33 8.5 -68t24.5 -84h-387zM471 797q57 -16 100 -47t80 -60l-104 506z" />
<glyph unicode="B" horiz-adv-x="1042" d="M0 0q14 25 27.5 47.5t24.5 54t18.5 76.5t7.5 113v205q0 66 -21.5 110.5t-56.5 104.5q37 61 57.5 106t20.5 113v209q0 68 -7.5 111.5t-18.5 76.5t-24.5 55.5t-27.5 47.5h485q82 0 156 -32t128 -86.5t86 -128t32 -155.5q0 -78 -27 -145.5t-74 -120.5q68 -51 108 -141.5 t40 -182.5v-10q0 -90 -34 -168t-91 -135t-136 -91t-167 -34h-309h-119h-78zM317 240h189q39 0 73.5 14t60.5 39.5t40 60.5t14 74v10q0 39 -14 73t-40 59.5t-60.5 41t-73.5 15.5h-189v-387zM317 866h168q70 0 116 48.5t46 113.5q0 66 -46 114t-116 48h-168v-324z" />
<glyph unicode="C" horiz-adv-x="911" d="M-72 711q20 35 34.5 63.5t24 58t12.5 64.5t3 82v68q0 86 33 159.5t89 129t131 86t161 30.5q70 0 135 -23.5t117.5 -64.5t89.5 -99.5t53 -125.5q6 -25 8 -42.5t5 -30.5t8.5 -26.5t15.5 -31.5h-299q23 41 22 73q0 57 -47 94t-108 37q-72 0 -123 -47t-51 -118v-35 q0 -57 4 -97.5t13 -72t24.5 -62t38.5 -69.5q-20 -35 -36 -64t-25 -58.5t-14 -63t-5 -79.5v-61q0 -72 51 -119t123 -47q61 0 108 37t47 94q0 35 -22 76h299q-10 -18 -14.5 -32.5t-7.5 -28t-6 -31t-9 -41.5q-16 -68 -53 -124t-89.5 -96t-118 -62.5t-134.5 -22.5 q-86 0 -161 29.5t-131 83t-89 126t-33 158.5v31q0 55 -3 94t-11 70.5t-22.5 62.5t-37.5 68z" />
<glyph unicode="D" horiz-adv-x="1062" d="M0 0q14 25 27.5 47.5t23.5 55t17.5 76.5t7.5 112v155q0 45 -5 79t-14.5 63.5t-24 58.5t-32.5 64q20 39 35.5 69.5t24 62t12.5 71.5t4 98v129q0 68 -7.5 111.5t-17.5 76.5t-23.5 55.5t-27.5 47.5h481q84 0 158 -33t129 -88.5t87 -129t32 -155.5v-14q0 -57 4 -97.5t13 -72 t24.5 -62t38.5 -69.5q-23 -37 -38.5 -68t-24.5 -62.5t-13 -70.5t-4 -94v-10q0 -84 -32 -158t-87 -129.5t-129 -87t-158 -31.5h-481zM315 240h166q68 0 117 49t49 117v620q0 68 -49 117t-117 49h-166v-952z" />
<glyph unicode="E" horiz-adv-x="927" d="M0 0q14 25 27.5 47.5t24.5 55t18.5 76.5t7.5 112v444q-18 -4 -32.5 -9t-25.5 -9q-12 -6 -20 -12q29 102 78 153v283q0 68 -7.5 111.5t-18.5 76.5t-24.5 55.5t-27.5 47.5h829v-318q-25 14 -48 27.5t-51 25t-61.5 18.5t-78.5 7h-273v-301q47 -16 87 -43t78 -51.5t79 -43 t90 -18.5q35 0 80 12.5t100 40.5q-74 -129 -140 -181t-134 -52q-55 0 -113.5 26.5t-126.5 67.5v-162v-247h273q39 0 69.5 5t58 15t54.5 24.5t57 32.5v-196v-121h-829z" />
<glyph unicode="F" horiz-adv-x="886" d="M-20 705q16 72 40.5 114.5t57.5 65.5v256q0 68 -7.5 111.5t-18.5 76.5t-24.5 55.5t-27.5 47.5h831v-318q-47 27 -99 52.5t-140 25.5h-275v-311q43 -16 78 -42t69 -48.5t71.5 -39t85.5 -16.5q37 0 82 12.5t100 40.5q-74 -131 -139.5 -182t-133.5 -51q-49 0 -101 21.5 t-112 56.5v-156v-186q0 -68 7.5 -112t18.5 -76.5t24.5 -55t27.5 -47.5h-78h-317q14 25 27.5 47.5t24.5 55t18.5 76.5t7.5 112v446q-25 0 -43.5 -5t-30.5 -11q-14 -8 -24 -16z" />
<glyph unicode="G" horiz-adv-x="1007" d="M-74 711q20 35 34.5 63.5t24 58t12.5 64.5t3 82v68q0 84 34 157.5t92 129t134 87t160 31.5q72 0 139.5 -22.5t122.5 -63.5t95 -98.5t57 -128.5q6 -25 8 -42.5t5 -31.5t9 -27.5t16 -31.5h-301q10 16 14.5 33.5t4.5 33.5q0 31 -14.5 56.5t-39 44t-55 28.5t-61.5 10 q-35 0 -68 -13t-57.5 -35.5t-39.5 -53.5t-15 -63v-662q0 -35 15 -64.5t39.5 -52t57.5 -36t68 -13.5q74 0 129 44t55 122v205h-29q-43 0 -78.5 -12.5t-58.5 -26.5v315q23 -14 58.5 -26.5t78.5 -12.5h269q8 -20 15 -33.5t15.5 -25.5t19.5 -24.5t30 -32.5q-23 -37 -38.5 -68 t-24.5 -62.5t-13 -70.5t-4 -94v-31q0 -86 -33 -158.5t-90 -126t-135 -83t-166 -29.5q-84 0 -160 30.5t-134 84t-92 126t-34 156.5v31q0 55 -3 94t-11.5 70.5t-22.5 62.5t-37 68z" />
<glyph unicode="H" horiz-adv-x="1097" d="M0 0q14 25 27.5 47.5t23.5 55t17.5 76.5t7.5 112v155q0 45 -5 79t-14.5 63.5t-24 58.5t-32.5 64q20 35 34.5 63.5t24 58t13.5 64.5t4 82v162q0 68 -7.5 111.5t-17.5 76.5t-23.5 55.5t-27.5 47.5h393q-14 -25 -27.5 -47.5t-24.5 -55.5t-18.5 -77t-7.5 -111v-273h340v273 q0 68 -7 111.5t-18.5 76.5t-24.5 55.5t-27 47.5h395q-14 -25 -27.5 -47.5t-25 -55.5t-18.5 -77t-7 -111v-162q0 -47 4 -82t14.5 -64.5t24.5 -58.5t37 -63q-20 -35 -35.5 -64t-25 -58.5t-14.5 -63t-5 -79.5v-155q0 -68 7 -112t18.5 -76.5t24.5 -55t28 -47.5h-395 q14 25 27 47.5t24.5 55t18.5 76.5t7 112v338h-340v-338q0 -68 7.5 -112t18.5 -76.5t24.5 -55t27.5 -47.5h-393z" />
<glyph unicode="I" horiz-adv-x="516" d="M0 0q14 25 27.5 47.5t24.5 55t18.5 76.5t7.5 112v125q0 55 -4 94t-13.5 70.5t-25 62.5t-35.5 68q23 39 37 69.5t23.5 62t13.5 71.5t4 98v129q0 68 -7.5 111.5t-18.5 76.5t-24.5 55.5t-27.5 47.5h393q-12 -25 -26.5 -47.5t-24.5 -55.5t-17.5 -77t-7.5 -111v-162 q0 -47 4.5 -82t14.5 -64.5t24.5 -58.5t36.5 -63q-23 -37 -38 -68t-24 -62.5t-13.5 -70.5t-4.5 -94v-125q0 -68 7.5 -112t17.5 -76.5t24.5 -55t26.5 -47.5h-393z" />
<glyph unicode="J" horiz-adv-x="1026" d="M0 428h299q-23 -37 -23 -76q0 -57 47.5 -94t108.5 -37q68 0 117 49t49 117v29q0 55 -4 94t-13.5 70.5t-24.5 62.5t-38 68q23 39 38 69.5t24.5 62t13.5 71.5t4 98v131q0 68 -7 111.5t-18.5 76.5t-24.5 55.5t-28 47.5h78h315q-12 -25 -26.5 -47.5t-24.5 -55.5t-17 -77 t-7 -111v-131q0 -57 4 -97.5t13 -72t24.5 -62t38.5 -69.5q-23 -37 -38.5 -68t-24.5 -62.5t-13 -70.5t-4 -94v-29q0 -84 -32 -156.5t-87 -126t-129 -84t-158 -30.5q-72 0 -136.5 22.5t-116.5 62.5t-89 96t-53 124q-6 25 -9 42t-6.5 30.5t-7.5 28t-14 32.5z" />
<glyph unicode="K" horiz-adv-x="1095" d="M0 0q12 25 25.5 47.5t24.5 55t17.5 76.5t6.5 112v155q0 45 -5.5 79t-14.5 63.5t-22.5 58.5t-31.5 64q20 39 34.5 69.5t23 62t12.5 71.5t4 98v129q0 68 -6.5 111.5t-17.5 76.5t-24.5 55.5t-25.5 47.5h391q-14 -25 -27.5 -47.5t-24.5 -55.5t-18.5 -77t-7.5 -111v-289 l275 436q12 18 24.5 47t-12.5 54q-10 10 -21.5 21t-25.5 22h455q-25 -23 -47.5 -41.5t-43 -40t-41 -50t-45.5 -67.5l-305 -514l308 -520q25 -41 45 -69t41.5 -50.5t43 -41t48.5 -38.5h-457q27 20 49 43q12 12 13 25.5t-3 27t-11 24.5t-13 21l-277 469v-319q0 -68 7.5 -112 t18.5 -76.5t24.5 -55t27.5 -47.5h-391z" />
<glyph unicode="L" horiz-adv-x="888" d="M0 0q14 25 27.5 47.5t23.5 55t17.5 76.5t7.5 112v125q0 55 -4 94t-13.5 70.5t-24 62.5t-34.5 68q20 39 35.5 69.5t24 62t12.5 71.5t4 98v129q0 68 -7.5 111.5t-17.5 76.5t-23.5 55.5t-27.5 47.5h393q-14 -25 -27.5 -47.5t-24.5 -55.5t-18.5 -77t-7.5 -111v-129 q0 -57 4.5 -97.5t13.5 -72t24.5 -62t37.5 -69.5q-23 -37 -38 -68t-24 -62.5t-13.5 -70.5t-4.5 -94v-176h246q68 0 112 7t76.5 18t55 24.5t47.5 27.5v-317h-98h-465h-289z" />
<glyph unicode="M" horiz-adv-x="1411" d="M0 0q12 25 26.5 47.5t24.5 55t17.5 76.5t7.5 112v125q0 55 -4 94t-13.5 70.5t-24 62.5t-34.5 68q20 35 34.5 63.5t24 58t13.5 64.5t4 82v162q0 68 -7.5 111.5t-17.5 76.5t-24.5 55.5t-26.5 47.5h489l154 -844l172 844h473q-14 -25 -27.5 -47.5t-24.5 -55.5t-17.5 -77 t-6.5 -111v-129q0 -57 4.5 -97.5t13.5 -72t24.5 -62t37.5 -69.5q-20 -35 -35.5 -64t-24.5 -58.5t-14.5 -63t-5.5 -79.5v-155q0 -68 6.5 -112t17.5 -76.5t24.5 -55t27.5 -47.5h-393q14 25 27.5 47.5t24.5 55t18.5 76.5t7.5 112v792l-213 -964q4 -27 18 -53h-272q16 31 22 53 l-213 964v-792q0 -68 7.5 -112t18.5 -76.5t24.5 -55t27.5 -47.5h-393z" />
<glyph unicode="N" horiz-adv-x="1120" d="M0 0q12 20 24.5 40.5t23.5 45.5t18.5 56.5t7.5 78.5v225q0 45 -5.5 79t-14.5 63.5t-22.5 58.5t-31.5 64q20 39 34.5 69.5t23 62t12.5 71.5t4 98v129q0 68 -6.5 111.5t-17.5 76.5t-24.5 55.5t-25.5 47.5h406l270 -783l4 543q0 51 -7 87t-18.5 62.5t-25 47t-25.5 43.5h393 q-14 -25 -27.5 -47.5t-24.5 -55.5t-18 -77t-7 -111v-129h2q0 -57 4 -97.5t13 -72t24.5 -62t37.5 -69.5q-23 -37 -38 -68t-24 -62.5t-13 -70.5t-4 -94h-2v-125q0 -68 7 -112t18 -76.5t24.5 -55t27.5 -47.5h-411q16 23 26.5 40t10.5 40v15t-5 18l-303 917l-2 -739 q0 -68 7.5 -112t18.5 -76.5t24.5 -55t27.5 -47.5h-391z" />
<glyph unicode="O" horiz-adv-x="1214" d="M51 711q23 39 38 69.5t24.5 62t13.5 71.5t4 98v28q0 86 36 161t97.5 129t144.5 85t177 31q92 0 179 -32t146 -87t94 -128t35 -159v-28q0 -57 4.5 -97.5t13.5 -72t24.5 -62t37.5 -69.5q-23 -37 -38 -68t-24 -62.5t-13.5 -70.5t-4.5 -94v-37q0 -86 -35.5 -157.5t-97 -125 t-144.5 -83t-177 -29.5t-177 29.5t-144.5 83t-97.5 125t-36 157.5v37q0 55 -4 94t-13.5 70.5t-24.5 62.5t-38 68zM391 379q0 -72 56.5 -118t138.5 -46t138 46t56 118v661q0 37 -15 68t-42 52.5t-62.5 33.5t-74.5 12t-75 -12t-62.5 -33.5t-42 -52.5t-15.5 -68v-661zM446 682 l140 137l139 -137l-139 -139z" />
<glyph unicode="P" horiz-adv-x="950" d="M0 0q14 25 27.5 47.5t24.5 55t18.5 76.5t7.5 112v125q0 55 -4 94t-13.5 70.5t-25 62.5t-35.5 68q23 39 37 69.5t23.5 62t13.5 71.5t4 98v129q0 68 -7.5 111.5t-18.5 76.5t-24.5 55.5t-27.5 47.5h487q82 0 155 -32t128 -87.5t87 -128t32 -154.5t-32 -154.5t-86 -128 t-127 -87t-157 -31.5h-170v-338q0 -68 7.5 -112t18.5 -76.5t24.5 -55t27.5 -47.5h-395zM317 868h170q66 0 114 48.5t48 113.5q0 66 -48 114t-114 48h-168q-2 -12 -2 -24.5v-26.5v-273z" />
<glyph unicode="Q" horiz-adv-x="1216" d="M53 711q20 35 35.5 63.5t26 58t14.5 64.5t4 82v61q0 86 36 161t97.5 129t144.5 85t177 31t177 -31t144.5 -85t97 -129t35.5 -161v-61q0 -47 4.5 -82t14.5 -64.5t24.5 -58.5t36.5 -63q-20 -35 -35.5 -64t-24.5 -58.5t-14.5 -63t-5.5 -79.5v-67q0 -72 -25.5 -135.5 t-70.5 -114.5t-108.5 -86t-139.5 -47q41 -31 89.5 -52.5t121.5 -21.5q35 0 74 5t86 18q-94 -92 -169 -129t-142 -37q-47 0 -92 15.5t-91.5 41t-95.5 60t-106 71.5q-41 25 -82 32t-76 7q-23 0 -38 -1t-27 -3q-14 -2 -25 -4q55 84 115 117q-49 53 -78 120.5t-29 143.5v67 q0 45 -5 79t-14.5 63.5t-24.5 58.5t-36 64zM393 379q0 -72 56.5 -118t138.5 -46t138 46t56 118v661q0 37 -15 68t-42 52.5t-62.5 33.5t-74.5 12t-75 -12t-62.5 -33.5t-42 -52.5t-15.5 -68v-661z" />
<glyph unicode="R" horiz-adv-x="1044" d="M0 0q14 25 27.5 47.5t24.5 55t18.5 76.5t7.5 112v155q0 45 -5 79t-14.5 63.5t-24 58.5t-34.5 64q23 39 37 69.5t23.5 62t13.5 71.5t4 98v129q0 68 -7.5 111.5t-18.5 76.5t-24.5 55.5t-27.5 47.5h485q82 0 155 -32t128 -86t87 -127t32 -157q0 -117 -56.5 -208t-152.5 -144 l119 -387q20 -68 40.5 -112t41 -76.5t41 -55t43.5 -47.5h-394q6 27 14.5 52.5t6.5 60.5q0 33 -7.5 74.5t-25.5 103.5l-104 338h-136v-338q0 -68 6.5 -112t17.5 -76.5t24.5 -55t27.5 -47.5h-393zM317 868h168q68 0 115 47.5t47 114.5q0 66 -48 114t-114 48h-168v-324z" />
<glyph unicode="S" horiz-adv-x="923" d="M-23 416h299q-25 -35 -24 -78q0 -61 49 -94t105 -33q25 0 48 9t41.5 26.5t30 39t11.5 46.5q0 20 -10.5 43.5t-26 47t-32.5 43t-30 34.5q-68 74 -155.5 120t-173.5 91v24q0 55 -17.5 102.5t-37 89.5t-37 82t-17.5 81q0 82 35 149.5t93 114.5t132 72.5t152 25.5 q70 0 135 -22.5t117.5 -64.5t89.5 -99.5t51 -126.5q8 -37 10 -67t23 -64h-308q10 16 17.5 35.5t7.5 41.5q0 31 -14.5 54.5t-36 40t-49 24.5t-54.5 8q-23 0 -46 -9t-41.5 -26.5t-31 -39t-12.5 -45.5q0 -23 10.5 -42.5t20.5 -37.5q66 -109 168 -177.5t213 -119.5 q0 -68 19.5 -117t44 -90t44 -79t19.5 -83q0 -86 -34 -153.5t-90 -115.5t-131 -72.5t-157 -24.5q-70 0 -135 21.5t-119.5 61t-90.5 96t-48 126.5q-4 37 -7 66.5t-20 64.5z" />
<glyph unicode="T" horiz-adv-x="958" d="M0 1114v318h862v-318q-25 14 -47 27.5t-54 25t-77 18.5t-113 7h-20v-213q0 -47 4 -82t14.5 -64.5t24.5 -58.5t37 -63q-20 -35 -35.5 -64t-25 -58.5t-14.5 -63t-5 -79.5v-155q0 -68 7 -112t18.5 -76.5t24.5 -55t28 -47.5h-393q14 25 27 47.5t23.5 55t17.5 76.5t7 112v125 q0 55 -4 94t-13 70.5t-24.5 62.5t-38.5 68q23 39 38.5 69.5t24.5 62t13 71.5t4 98v180h-20q-68 0 -112 -7t-76.5 -18.5t-55 -25t-47.5 -27.5z" />
<glyph unicode="U" horiz-adv-x="1163" d="M0 711q23 39 37 69.5t23.5 62t13.5 71.5t4 98v131q0 68 -7.5 111.5t-18.5 76.5t-24.5 55.5t-27.5 47.5h416q-14 -25 -27.5 -47.5t-25 -55.5t-18.5 -77t-7 -111v-131q0 -57 4 -97.5t13.5 -72t24.5 -62t38 -69.5q-20 -35 -35.5 -64t-25 -58.5t-14.5 -63t-5 -79.5v-61 q0 -35 14.5 -64.5t39 -52t58 -36t72.5 -13.5q76 0 129.5 49t53.5 117v61q0 45 -5.5 79t-14.5 63.5t-24.5 58.5t-35.5 64q23 39 38 69.5t24 62t13.5 71.5t4.5 98v131q0 68 -7.5 111.5t-18.5 76.5t-24.5 55.5t-27.5 47.5h415q-14 -25 -27.5 -47.5t-24.5 -55.5t-18 -77t-7 -111 v-164q0 -47 4 -82t14 -64.5t24.5 -58.5t36.5 -63q-23 -37 -38 -68t-24 -62.5t-13 -70.5t-4 -94v-31q0 -84 -35 -156.5t-95.5 -126t-141.5 -83t-171 -29.5q-92 0 -173 29.5t-141.5 83t-95 126t-34.5 156.5v61q0 45 -5 79t-14.5 63.5t-24 58.5t-34.5 64z" />
<glyph unicode="V" horiz-adv-x="1208" d="M0 1427h387q-11 -31 -23 -61q-11 -26 -10 -70v-14q0 -18 2 -39.5t6 -46.5l185 -893l192 868q8 35 9.5 62t1.5 49q0 53 -10.5 84t-20.5 61h389q-18 -23 -38.5 -45t-40 -54t-36 -76t-28.5 -109l-25 -131q-4 -36 -4 -69q0 -46 8 -86q14 -69 33 -146q-35 -35 -55.5 -65 t-36 -60.5t-27.5 -66.5t-31 -85l-36 -190q-6 -31 -8.5 -55.5t-2.5 -45.5q0 -51 11.5 -81.5t21.5 -61.5h-526q10 31 21 62.5t11 84.5q-2 16 -2 37t-4 43q-10 61 -22.5 123t-22.5 123q-12 39 -23.5 68.5t-25.5 57.5t-34.5 54.5t-51.5 57.5q19 79 33 147q9 41 8 87q0 32 -4 67 q-6 31 -12 62.5t-13 62.5q-14 68 -31.5 112.5t-36 76.5t-39 54.5t-38.5 46.5z" />
<glyph unicode="W" horiz-adv-x="1562" d="M0 1432h104h187h104q-10 -25 -21.5 -47.5t-18.5 -55.5t-8 -77v-8q0 -42 9 -103l113 -768l113 768q9 62 9 103v8q-1 44 -8.5 77t-18.5 55.5t-21 47.5h106h182h109q-10 -25 -21.5 -47.5t-18.5 -55.5t-8 -77v-8q0 -42 9 -103l111 -760l110 760q-2 63 -8 121q-4 49 -12 97 t-19 73h105h186h103q-16 -25 -33 -47.5t-32 -53.5t-27.5 -75t-20.5 -107l-21 -150q-4 -32 -4 -62q-1 -47 9 -87q16 -66 34 -139q-23 -45 -36 -70t-23 -51.5t-22.5 -65.5t-30.5 -112h-2l-17 -121q-9 -62 -9 -104v-8q1 -44 8 -76.5t18.5 -55t21.5 -47.5h-506q16 29 19.5 45 t-0.5 47l-62 623l-63 -625q-4 -31 -1 -46t19 -44h-508q10 25 21.5 47.5t19 55t7.5 76.5t-9 112l-16 121h-2q-18 74 -30.5 112.5t-23 65t-23.5 51.5t-36 70q18 79 32 147q9 41 9 87q0 32 -4 67l-16 129q-8 68 -21.5 111.5t-29 76.5t-33 55.5t-33.5 47.5z" />
<glyph unicode="X" horiz-adv-x="1224" d="M0 0q23 20 45.5 40.5t45 46.5t47 60.5t48.5 85.5l197 392q-16 37 -28.5 53t-28.5 35q23 23 35 37t24 53q-51 98 -99 195.5t-100 195.5q-25 49 -49 85t-46.5 61.5t-45 46t-45.5 43.5h479q-10 -35 -13 -68t-3 -62q0 -90 30.5 -166.5t75.5 -166.5q45 90 76 165.5t31 167.5 q0 29 -3 62t-14 68h474q-25 -23 -48.5 -44.5t-48 -50t-50 -66.5t-52.5 -93q-47 -94 -93 -187.5t-91 -185.5q12 -39 24 -53.5t35 -36.5q-16 -18 -28.5 -34.5t-30.5 -53.5q47 -94 92 -187.5t92 -185.5q27 -55 52.5 -93t50 -67t48 -50.5t48.5 -41.5h-474q10 35 13.5 66.5 t3.5 62.5q0 90 -31 167t-76 169q-45 -92 -75.5 -169t-30.5 -167q0 -31 3 -62.5t13 -66.5h-479z" />
<glyph unicode="Y" horiz-adv-x="1126" d="M0 1432h426q-18 -69 -18 -125v-11q2 -61 17 -116.5t41 -111.5t54 -124q27 68 53.5 124t43 111.5t18.5 116.5v10q0 57 -19 126h426q-33 -35 -65.5 -68t-61.5 -92l-229 -467h19q12 -41 24 -55.5t35 -36.5q-16 -18 -28.5 -34.5t-30.5 -55.5h-64v-332q0 -68 7 -112 t17.5 -76.5t25 -55t26.5 -47.5h-393q14 25 27.5 47.5t24.5 55t18 76.5t7 112v332h-61q-18 39 -30.5 55t-28.5 35q23 23 35 37t24 55h16q-57 117 -114.5 233.5t-116.5 233.5q-31 59 -62.5 92t-62.5 68z" />
<glyph unicode="Z" horiz-adv-x="1122" d="M0 0l48.5 48.5t47 55t50 76.5t57.5 111l184 399q-37 27 -72.5 38t-64.5 11q-27 0 -46.5 -6t-33.5 -12q-16 -8 -31 -16q35 119 86 163.5t117 44.5q31 0 64.5 -8t70.5 -20l139 307h-180q-68 0 -118 -7t-89 -18.5t-67.5 -25t-52.5 -27.5v78v240h763l181 -2 q-23 -20 -44.5 -41t-43 -46.5t-44 -61.5t-47.5 -87l-196 -430q51 -29 110 -29q37 0 82 12.5t101 40.5q-74 -131 -140.5 -182t-134.5 -51q-47 0 -102 23l-156 -338h189q74 0 123 7t84.5 18t61.5 24.5t52 27.5v-77v-240h-766h-182z" />
<glyph unicode="[" horiz-adv-x="538" d="M0 -465v2142h287q102 0 184 41v-286q-82 41 -184 41h-86v-1733h86q102 0 184 41v-287q-82 41 -184 41h-287z" />
<glyph unicode="\" horiz-adv-x="1165" d="M2 1432h102h228q0 -25 3 -47.5t15 -55.5t35 -77t59 -111l457 -850q37 -68 62.5 -112t47 -76.5t43 -55t48.5 -47.5h-72h-153h-101q0 25 -4 47.5t-16.5 55t-34 76.5t-57.5 112l-459 850q-37 68 -62.5 111.5t-48 76.5t-44 55.5t-48.5 47.5z" />
<glyph unicode="]" horiz-adv-x="595" d="M0 -219q82 -41 184 -41h86v1733h-86q-102 0 -184 -41v286q82 -41 184 -41h287v-2142h-287q-102 0 -184 -41v287z" />
<glyph unicode="^" horiz-adv-x="972" d="M4 897q43 45 86 111.5t78 139.5t61.5 146.5t36.5 135.5h363q12 -70 35.5 -143t56.5 -141.5t71.5 -132t81.5 -116.5h-227q0 43 -24.5 97.5t-57.5 109.5t-65.5 105.5t-50.5 86.5q-18 -37 -52.5 -87t-69 -105t-60 -109.5t-27.5 -97.5h-236z" />
<glyph unicode="_" horiz-adv-x="1294" d="M0 0q43 -16 89 -15t95 1h983q51 0 96.5 -1t88.5 15v-229q-43 23 -88 22.5t-97 -0.5h-983h-95t-89 -22v41v188z" />
<glyph unicode="`" horiz-adv-x="309" d="M2 1890h59h207q-6 -25 -10 -42t-1 -41.5t12.5 -63.5t27.5 -107l35 -125l-187 84l-12 45q-18 68 -33.5 106t-31 62.5t-30.5 41t-36 40.5z" />
<glyph unicode="a" horiz-adv-x="1216" d="M0 0q18 25 38.5 47.5t40 54t37 76.5t29.5 113l156 848q6 31 7 56.5t1 47.5q0 74 -15 112t-32 75h576q-16 -37 -31.5 -75t-15.5 -108q0 -23 1 -49.5t7 -56.5l166 -856q12 -66 29.5 -110t36 -75.5t39 -54t38.5 -45.5h-391q12 31 22.5 61.5t10.5 83.5q0 23 -2.5 49.5 t-8.5 61.5l-37 180h-301l-28 -145q-10 -45 -14.5 -77t-4.5 -62q0 -33 8.5 -68t24.5 -84h-387zM449 676h204l-106 518z" />
<glyph unicode="b" horiz-adv-x="1040" d="M0 0q14 25 27.5 47.5t24.5 54t18.5 76.5t7.5 113v454v394q0 68 -7.5 111.5t-18.5 76.5t-24.5 55.5t-27.5 47.5h485q82 0 156 -32t128 -86.5t86 -128t32 -155.5q0 -78 -26.5 -145.5t-74.5 -120.5q68 -51 108 -141.5t40 -182.5v-10q0 -90 -34 -168t-91 -135t-136 -91 t-167 -34h-309h-119h-78zM317 240h189q39 0 73.5 14t60.5 39.5t40 60.5t14 74v10q0 39 -14 73t-40 59.5t-60.5 41t-73.5 15.5h-189v-387zM317 866h168q70 0 116 48.5t46 113.5q0 66 -46 114t-116 48h-168v-324z" />
<glyph unicode="c" horiz-adv-x="907" d="M2 385v662q0 86 33 159.5t89 129t131 86t161 30.5q70 0 135 -23.5t117.5 -64.5t89.5 -99.5t53 -125.5q6 -25 8 -42.5t5 -30.5t8.5 -26.5t15.5 -31.5h-299q23 41 22 73q0 57 -47 94t-108 37q-72 0 -123 -47t-51 -118v-662q0 -72 51 -119t123 -47q61 0 108 37t47 94 q0 35 -22 76h299q-10 -18 -14.5 -32.5t-7.5 -28t-6 -31t-9 -41.5q-16 -68 -53 -124t-89.5 -96t-118 -62.5t-134.5 -22.5q-86 0 -161 29.5t-131 83t-89 126t-33 158.5z" />
<glyph unicode="d" horiz-adv-x="999" d="M0 0q14 25 27.5 47.5t23.5 55t17.5 76.5t7.5 112v850q0 68 -7.5 111.5t-17.5 76.5t-23.5 55.5t-27.5 47.5h481q84 0 158 -33t129 -88.5t87 -129t32 -155.5v-620q0 -84 -32 -158t-87 -129.5t-129 -87t-158 -31.5h-284h-121h-76zM315 240h166q68 0 117 49t49 117v620 q0 68 -49 117t-117 49h-166v-952z" />
<glyph unicode="e" horiz-adv-x="929" d="M0 0q14 25 27.5 47.5t24.5 55t18.5 76.5t7.5 112v850q0 68 -7.5 111.5t-18.5 76.5t-24.5 55.5t-27.5 47.5h831v-318q-47 27 -99 52.5t-140 25.5h-275v-324h267q43 0 68.5 11.5t47.5 25.5v-315q-23 14 -48 26.5t-68 12.5h-267v-389h275q39 0 68.5 5t57 15t54.5 24.5 t59 32.5v-196v-121h-831z" />
<glyph unicode="f" horiz-adv-x="886" d="M0 0q14 25 27.5 47.5t23.5 55t17.5 76.5t7.5 112v850q0 68 -7.5 111.5t-17.5 76.5t-23.5 55.5t-27.5 47.5h829v-318q-47 27 -99 52.5t-140 25.5h-275v-324h267q43 0 68.5 11.5t49.5 25.5v-315q-25 14 -50 26.5t-68 12.5h-267v-338q0 -68 7.5 -112t18.5 -76.5t24.5 -55 t27.5 -47.5h-78h-315z" />
<glyph unicode="g" horiz-adv-x="962" d="M0 385v662q0 84 34 157.5t92 129t134 87t160 31.5q72 0 139.5 -22.5t122.5 -63.5t95 -98.5t57 -128.5q6 -25 8 -42.5t5 -31.5t9 -27.5t16 -31.5h-301q10 16 14.5 33.5t4.5 33.5q0 31 -14.5 56.5t-39 44t-55 28.5t-61.5 10q-35 0 -68 -13t-57.5 -35.5t-39.5 -53.5t-15 -63 v-662q0 -35 15 -64.5t39.5 -52t57.5 -36t68 -13.5q74 0 129 44t55 122v205h-29q-43 0 -78.5 -12.5t-58.5 -26.5v315q23 -14 58.5 -26.5t78.5 -12.5h269v-442q0 -86 -33 -158.5t-90 -126t-135 -83t-166 -29.5q-84 0 -160 30.5t-134 84t-92 126t-34 156.5z" />
<glyph unicode="h" horiz-adv-x="1075" d="M0 0q14 25 27.5 47.5t23.5 55t17.5 76.5t7.5 112v850q0 68 -7.5 111.5t-17.5 76.5t-23.5 55.5t-27.5 47.5h393q-14 -25 -27.5 -47.5t-24.5 -55.5t-18.5 -77t-7.5 -111v-273h340v273q0 68 -7 111.5t-18.5 76.5t-24.5 55.5t-27 47.5h395q-14 -25 -27.5 -47.5t-25 -55.5 t-18.5 -77t-7 -111v-850q0 -68 7 -112t18.5 -76.5t24.5 -55t28 -47.5h-395q14 25 27 47.5t24.5 55t18.5 76.5t7 112v338h-340v-338q0 -68 7.5 -112t18.5 -76.5t24.5 -55t27.5 -47.5h-393z" />
<glyph unicode="i" horiz-adv-x="495" d="M0 0q14 25 27.5 47.5t24.5 55t18.5 76.5t7.5 112v850q0 68 -7.5 111.5t-18.5 76.5t-24.5 55.5t-27.5 47.5h291h102q-12 -25 -26.5 -47.5t-24.5 -55.5t-17.5 -77t-7.5 -111v-850q0 -68 7.5 -112t17.5 -76.5t24.5 -55t26.5 -47.5h-102h-187h-104z" />
<glyph unicode="j" horiz-adv-x="1009" d="M0 428h299q-23 -37 -23 -76q0 -57 47.5 -94t108.5 -37q68 0 117 49t49 117v248v508q0 68 -7 111.5t-18.5 76.5t-24.5 55.5t-28 47.5h78h315q-12 -25 -26.5 -47.5t-24.5 -55.5t-17 -77t-7 -111v-756q0 -84 -32 -156.5t-87 -126t-129 -84t-158 -30.5q-72 0 -136.5 22.5 t-116.5 62.5t-89 96t-53 124q-6 25 -9 42t-6.5 30.5t-7.5 28t-14 32.5z" />
<glyph unicode="k" horiz-adv-x="1095" d="M0 0q12 25 25.5 47.5t24.5 55t17.5 76.5t6.5 112v850q0 68 -6.5 111.5t-17.5 76.5t-24.5 55.5t-25.5 47.5h100h187h104q-14 -25 -27.5 -47.5t-24.5 -55.5t-18.5 -77t-7.5 -111v-289l275 436q12 18 24.5 47t-12.5 54q-10 10 -21.5 21t-25.5 22h197h198h60 q-25 -23 -46.5 -41.5t-42 -41t-42 -50t-46.5 -66.5l-305 -514l308 -520q25 -39 46 -67t41.5 -50.5t42 -42t48.5 -39.5h-457q27 20 49 43q12 12 13 25.5t-3 27t-11 24.5t-13 21l-277 469v-319q0 -68 7.5 -112t18.5 -76.5t24.5 -55t27.5 -47.5h-391z" />
<glyph unicode="l" horiz-adv-x="888" d="M0 0q14 25 27.5 47.5t23.5 55t17.5 76.5t7.5 112v850q0 68 -7.5 111.5t-17.5 76.5t-23.5 55.5t-27.5 47.5h393q-14 -25 -27.5 -47.5t-24.5 -55.5t-18.5 -77t-7.5 -111v-901h246q68 0 112 7t76.5 18t55 24.5t47.5 27.5v-317h-98h-193h-272h-289z" />
<glyph unicode="m" horiz-adv-x="1390" d="M0 0q12 25 26.5 47.5t24.5 55t17.5 76.5t7.5 112v850q0 68 -7.5 111.5t-17.5 76.5t-24.5 55.5t-26.5 47.5h489l154 -844l172 844h473q-14 -25 -27.5 -47.5t-24.5 -55.5t-17.5 -77t-6.5 -111v-850q0 -68 6.5 -112t17.5 -76.5t24.5 -55t27.5 -47.5h-102h-187h-104 q14 25 27.5 47.5t24.5 55t18.5 76.5t7.5 112v792l-213 -964q4 -27 18 -53h-272q16 31 22 53l-213 964v-792q0 -68 7.5 -112t18.5 -76.5t24.5 -55t27.5 -47.5h-393z" />
<glyph unicode="n" horiz-adv-x="1099" d="M0 0q12 20 24.5 40.5t23.5 45.5t18.5 56.5t7.5 78.5v920q0 68 -6.5 111.5t-17.5 76.5t-24.5 55.5t-25.5 47.5h406l270 -783l4 543q0 51 -7 87t-18.5 62.5t-25 47t-25.5 43.5h289h104q-14 -25 -27.5 -47.5t-24.5 -55.5t-18 -77t-7 -111v-850q0 -68 7 -112t18 -76.5 t24.5 -55t27.5 -47.5h-411q16 23 26.5 40t10.5 40v15t-5 18l-303 917l-2 -739q0 -68 7.5 -112t18.5 -76.5t24.5 -55t27.5 -47.5h-391z" />
<glyph unicode="o" horiz-adv-x="1015" d="M0 385v662q0 86 35 159.5t96.5 128t144.5 86t179 31.5q94 0 177 -31.5t144.5 -86t97 -128t35.5 -159.5v-662q0 -86 -35.5 -158.5t-97 -126t-144.5 -83t-177 -29.5q-96 0 -179 29.5t-144.5 83t-96.5 126t-35 158.5zM260 385q0 -72 57.5 -119t137.5 -47t137 47t57 119v662 q0 72 -57 118.5t-137 46.5t-137.5 -47t-57.5 -118v-662z" />
<glyph unicode="p" horiz-adv-x="950" d="M0 0q14 25 27.5 47.5t24.5 55t18.5 76.5t7.5 112v457v393q0 68 -7.5 111.5t-18.5 76.5t-24.5 55.5t-27.5 47.5h291h196q82 0 155 -32t128 -87.5t87 -128t32 -154.5t-32 -154.5t-86 -128t-127 -87t-157 -31.5h-170v-338q0 -68 7.5 -112t18.5 -76.5t24.5 -55t27.5 -47.5 h-104h-187h-26h-78zM317 868h170q66 0 114 48.5t48 113.5q0 66 -48 114t-114 48h-168q-2 -12 -2 -24.5v-26.5v-273z" />
<glyph unicode="q" horiz-adv-x="1015" d="M0 385v662q0 86 35 159.5t96.5 129t144 86t179.5 30.5q94 0 177 -30.5t144.5 -85t97 -129t35.5 -160.5v-662q0 -98 -46 -180t-124 -137q18 -49 38 -85t39.5 -62.5t38.5 -48.5t38 -42h-98h-193h-14h-78q8 27 14 52.5t6 64.5v21.5t-2 25.5q-18 -4 -36.5 -4h-36.5 q-94 0 -177 29.5t-144.5 82t-97.5 125t-36 158.5zM260 385q0 -72 56.5 -119t138.5 -47q4 0 6 1t4 1l-39 129q-20 63 -43 88t-41 43l219 80l74 -235q12 27 12 59v662q0 74 -56 119.5t-136 45.5t-137.5 -47t-57.5 -118v-662z" />
<glyph unicode="r" horiz-adv-x="1044" d="M0 0q14 25 27.5 47.5t24.5 55t18.5 76.5t7.5 112v850q0 68 -7.5 111.5t-18.5 76.5t-24.5 55.5t-27.5 47.5h485q82 0 155 -32t128 -86t87 -127t32 -157q0 -117 -56.5 -208t-152.5 -144l119 -387q20 -68 40.5 -112t41 -76.5t41 -55t43.5 -47.5h-291h-27h-76q6 27 14.5 52.5 t6.5 60.5q0 33 -7.5 74.5t-25.5 103.5l-104 338h-136v-338q0 -68 6.5 -112t17.5 -76.5t24.5 -55t27.5 -47.5h-289h-104zM317 868h168q68 0 115 47.5t47 114.5q0 66 -48 114t-114 48h-168v-51v-273z" />
<glyph unicode="s" horiz-adv-x="921" d="M-23 416h299q-14 -20 -19 -40t-5 -38q0 -55 45 -91t109 -36q53 0 92 39t39 82q0 31 -27 72.5t-69 91t-94 105t-103 112.5q-49 55 -93.5 104t-78 95t-53 90.5t-19.5 87.5q0 82 35 148.5t91 113.5t131 73.5t155 26.5q70 0 134 -22.5t116.5 -63.5t90.5 -99.5t52 -127.5 q4 -25 6 -42.5t4 -30.5t7 -26.5t16 -31.5h-308q25 39 25 77q0 55 -46 91t-108 36q-27 0 -50 -11t-41.5 -27.5t-29 -39t-10.5 -42.5q0 -39 40 -94.5t99.5 -120t129 -134t129 -139t99.5 -134t42 -118.5v-18q0 -82 -35 -147.5t-91 -111.5t-131 -70.5t-155 -24.5 q-72 0 -137 21.5t-118.5 61t-89.5 96t-48 126.5q-6 49 -8 72.5t-19 58.5z" />
<glyph unicode="t" horiz-adv-x="958" d="M0 1114v197v121h311h240h311v-121v-197q-25 14 -47 27.5t-54 25t-77 18.5t-113 7h-20v-901q0 -68 7 -112t18.5 -76.5t24.5 -55t28 -47.5h-105h-186h-102q14 25 27 47.5t23.5 55t17.5 76.5t7 112v901h-20q-68 0 -112 -7t-76.5 -18.5t-55 -25t-47.5 -27.5z" />
<glyph unicode="u" horiz-adv-x="1140" d="M0 1434h291h125q-14 -25 -27.5 -47.5t-25 -55.5t-18.5 -77t-7 -111v-758q0 -35 14.5 -64.5t39 -52t58 -36t72.5 -13.5q76 0 129.5 49t53.5 117v758q0 68 -7.5 111.5t-18.5 76.5t-24.5 55.5t-27.5 47.5h291h124q-14 -25 -27.5 -47.5t-24.5 -55.5t-18 -77t-7 -111v-758 q0 -84 -35 -156.5t-95.5 -126t-141.5 -83t-171 -29.5q-92 0 -173 29.5t-141.5 83t-95 126t-34.5 156.5v758q0 68 -7.5 111.5t-18.5 76.5t-24.5 55.5t-27.5 47.5z" />
<glyph unicode="v" horiz-adv-x="1208" d="M0 1427h387q-11 -31 -23 -61q-11 -26 -10 -70v-14q0 -18 2 -39.5t6 -46.5l185 -893l192 868q8 35 9.5 62t1.5 49q0 53 -10.5 84t-20.5 61h389q-18 -23 -38.5 -45t-39 -54t-36 -76t-29.5 -109l-174 -899q-6 -31 -8.5 -55.5t-2.5 -45.5q0 -51 11.5 -81.5t21.5 -61.5h-526 q10 31 21 62.5t11 84.5q-2 16 -2 37t-4 43q-41 229 -80.5 455.5t-87.5 454.5q-14 68 -31.5 112.5t-36 76.5t-39 54.5t-38.5 46.5z" />
<glyph unicode="w" horiz-adv-x="1583" d="M0 1432h104h187h104q-10 -25 -21.5 -47.5t-18.5 -55.5t-8 -77v-8q0 -42 9 -103l113 -768l113 768q9 62 9 103v8q-1 44 -8.5 77t-18.5 55.5t-21 47.5h106h182h109q-10 -25 -21.5 -47.5t-18.5 -55.5t-8 -77v-8q0 -42 9 -103l111 -760l110 760q7 60 7 102v9q-1 44 -7 77 t-17 55.5t-22 47.5h105h186h103q-16 -25 -33 -47.5t-32 -53.5t-27.5 -75t-20.5 -107l-113 -858q-7 -60 -7 -102v-10q1 -44 7 -76.5t17.5 -55t21.5 -47.5h-506q16 29 19.5 45t-0.5 47l-62 623l-63 -625q-4 -31 -1 -46t19 -44h-508q10 25 21.5 47.5t17.5 54.5q5 33 7 77 q0 6 1 13q0 41 -8 99l-110 850q-8 68 -21.5 111.5t-29 76.5t-33 55.5t-33.5 47.5z" />
<glyph unicode="x" horiz-adv-x="1224" d="M0 0q23 20 44.5 40.5t45 46.5t47 61.5t49.5 84.5q61 121 122 240t122 242q-61 121 -121.5 239.5t-122.5 239.5q-27 49 -50 85t-46.5 61.5t-45 46t-44.5 43.5h289h190q-10 -35 -13 -68t-3 -62q0 -90 30.5 -166.5t75.5 -166.5q45 90 76 165.5t31 167.5q0 29 -3 62t-14 68 h183h291q-25 -23 -48.5 -44.5t-48 -50t-50 -66.5t-52.5 -93q-59 -117 -114.5 -231t-112.5 -230q57 -117 112 -231.5t115 -231.5q27 -55 52.5 -93t50 -67t48 -50.5t48.5 -41.5h-291h-183q10 35 13.5 66.5t3.5 62.5q0 90 -31 167t-76 169q-45 -92 -75.5 -169t-30.5 -167 q0 -31 3 -62.5t13 -66.5h-291h-188z" />
<glyph unicode="y" horiz-adv-x="1126" d="M0 1432h426q-18 -69 -18 -125v-11q2 -61 17 -116.5t40.5 -111.5t54.5 -124q27 68 53.5 124t43 111.5t18.5 116.5v10q0 57 -19 126h426q-33 -35 -65.5 -68t-61.5 -92l-274 -561v-23v-397q0 -68 7 -112t17.5 -76.5t25 -55t26.5 -47.5h-76h-27h-94h-92h-27h-77 q14 25 27.5 47.5t24.5 55t18 76.5t7 112v334v86q-68 141 -136 281.5t-140 279.5q-31 59 -62.5 92t-62.5 68z" />
<glyph unicode="z" horiz-adv-x="1140" d="M0 0q25 25 47.5 48.5t47 55t51 76.5t57.5 111l413 901h-217q-68 0 -112.5 -7t-76.5 -18.5t-54.5 -25t-46.5 -27.5v78v240h53h889q-20 -23 -42 -43.5t-43.5 -46t-44 -61.5t-47.5 -87l-436 -954h187q74 0 124 7t84.5 18t60.5 24.5t52 27.5v-77v-240h-766h-180z" />
<glyph unicode="~" horiz-adv-x="917" d="M0 707q27 88 61.5 134t77.5 62.5t93.5 9t105.5 -27.5q61 -23 108.5 -61t99.5 -62.5t117.5 -24.5t167.5 54q-78 -135 -146.5 -186.5t-139 -47.5t-149.5 49t-175 103q-47 29 -88 31.5t-70 -5.5q-37 -8 -63 -28z" />
<glyph unicode="&#xa1;" horiz-adv-x="434" d="M80 -252l14 1096h207l18 -1096h-239zM82 965v182l29 27h180l28 -27v-182l-28 -29h-180z" />
<glyph unicode="&#xa2;" horiz-adv-x="925" d="M2 385v377q0 74 23.5 138.5t65.5 115.5t98.5 87t123.5 52q-10 53 -28.5 86t-36.5 66h327q-18 -33 -36.5 -65t-28.5 -87q111 -27 192.5 -107.5t108.5 -193.5q6 -25 8 -42t5 -30.5t8.5 -27t15.5 -31.5h-299q23 41 22 74q0 57 -47 94t-108 37q-72 0 -123 -47t-51 -119v-377 q0 -72 51 -119t123 -47q61 0 108 37t47 94q0 35 -22 76h299q-10 -18 -14.5 -32.5t-7.5 -28t-6 -31t-9 -41.5q-29 -115 -111 -195t-192 -100q10 -59 29.5 -94t37.5 -70h-327q20 35 38.5 70t28.5 96q-68 12 -125 47t-99 85t-65.5 114.5t-23.5 138.5z" />
<glyph unicode="&#xa3;" horiz-adv-x="983" d="M0 0q8 16 14 23q12 20 22.5 42.5t20 53.5t14.5 71.5t5 100.5v215q-41 -10 -76 -27v287q41 -20 76 -29v289q0 84 31.5 157.5t87 129t129 87.5t157.5 32q72 0 136.5 -24t116.5 -64.5t89 -99t54 -126.5q6 -25 9 -42t6 -30.5t7 -27.5t14 -33h-299q23 37 23 76q0 57 -47 94 t-109 37q-33 0 -62.5 -12.5t-53 -34t-37 -51t-13.5 -62.5v-307h162q102 0 185 41v-287q-82 41 -185 41h-162v-250v-30h246q68 0 112 7t76.5 18t55 24.5t47.5 27.5v-317h-852z" />
<glyph unicode="&#xa4;" horiz-adv-x="1167" d="M0 231q41 12 85 25.5t103 60.5q-80 102 -79 234v172q0 70 23.5 131t66.5 113q-33 27 -59.5 43t-50 25t-46.5 15.5t-43 12.5l231 231q6 -23 12.5 -45t17.5 -47.5t29.5 -56.5t51.5 -68q102 51 221 51q123 0 225 -53q33 37 52.5 68t31 56.5t17.5 49t12 45.5l232 -231 q-23 -6 -44.5 -12.5t-46 -15.5t-52 -25.5t-60.5 -44.5q41 -51 64.5 -112.5t23.5 -129.5v-172q0 -131 -80 -229q31 -25 57.5 -40.5t50 -24.5t44 -14t43.5 -12l-232 -231q-6 23 -12 44.5t-16.5 46t-27 52t-44.5 62.5q-106 -59 -238 -60q-66 0 -124 14.5t-109 41.5 q-29 -33 -45.5 -60.5t-25.5 -51t-15 -45t-13 -44.5zM369 551q0 -72 57 -119t137 -47t137.5 47t57.5 119v172q0 72 -57.5 119t-137.5 47t-137 -47t-57 -119v-172z" />
<glyph unicode="&#xa5;" horiz-adv-x="1138" d="M0 1432h426q-20 -76 -18 -136.5t17 -116t41 -111.5t54 -124q27 68 53.5 124t43 111.5t18.5 116t-19 136.5h426q-33 -35 -65.5 -68t-61.5 -92l-251 -516h4q102 0 184 41v-254q-82 41 -184 41h-27v-142h27q102 0 184 41v-254q-82 41 -184 41h-27q2 -61 9 -102t17.5 -70.5 t24 -52t25.5 -45.5h-76h-27h-94h-92h-27h-77q12 23 25 45.5t24.5 52t18.5 70.5t9 102h-26q-102 0 -185 -41v41v213q82 -41 185 -41h26v142h-26q-102 0 -185 -41v41v213q82 -41 185 -41h4q-61 129 -125 258t-129 258q-31 59 -62.5 92t-62.5 68z" />
<glyph unicode="&#xa6;" horiz-adv-x="548" />
<glyph unicode="&#xa7;" horiz-adv-x="770" d="M-27 20h238q-18 -27 -18 -55q0 -43 35.5 -71.5t86.5 -28.5q43 0 74 30.5t31 65.5q0 20 -20.5 49t-54.5 62.5t-76 73.5t-83 85q-39 43 -74.5 83t-61 77t-40 72t-12.5 69l2 66q18 80 79.5 135t143.5 78l-22 25q-80 88 -138.5 158.5t-58.5 142.5q0 66 27.5 119t74 91.5 t105.5 59t123 20.5q55 0 107.5 -18t94.5 -51t71.5 -79t41.5 -103q8 -39 8 -57.5t19 -47.5h-246q10 16 14.5 31.5t4.5 30.5q0 45 -37 73.5t-86 28.5q-41 0 -73 -30.5t-32 -65.5q0 -31 32 -75t79 -96.5t103.5 -108.5t103.5 -111.5t79.5 -106.5t32.5 -94l-8 -80 q-20 -80 -80.5 -135.5t-140.5 -77.5q39 -41 78 -79t69.5 -72.5t49 -65.5t18.5 -60v-14q0 -66 -27.5 -119t-72.5 -92t-104.5 -59.5t-123.5 -20.5q-57 0 -109.5 18.5t-93 52.5t-69.5 80t-37 101q-4 39 -7 56.5t-20 39.5zM207 535q0 -41 34 -71t89 -30q41 0 70.5 27.5 t33.5 60.5v13q-6 41 -40 68.5t-83 27.5q-41 0 -70.5 -29t-33.5 -61v-6z" />
<glyph unicode="&#xa8;" horiz-adv-x="614" d="M82 1538v182l29 29h180l28 -29v-182l-28 -27h-180zM422 1538v182l29 29h180l28 -29v-182l-28 -27h-180z" />
<glyph unicode="&#xa9;" horiz-adv-x="1280" d="M90 416v839l180 170h713l170 -170v-835l-182 -174h-711zM264 487l68 -67h579l68 67v697l-68 67h-579l-68 -67v-697zM406 672v329q0 43 16 80t45 65t65.5 43t79.5 15q72 0 127.5 -44t71.5 -111q6 -25 7 -37.5t11 -28.5h-149q10 20 10 37q0 29 -23.5 47t-54.5 18 q-35 0 -60.5 -23.5t-25.5 -60.5v-329q0 -35 26 -59.5t60 -24.5q31 0 54.5 18.5t23.5 46.5q0 14 -10 39h149q-10 -20 -11 -30.5t-7 -36.5q-16 -68 -71.5 -112t-127.5 -44q-43 0 -79.5 15.5t-65.5 43t-45 64.5t-16 80z" />
<glyph unicode="&#xad;" horiz-adv-x="548" />
<glyph unicode="&#xae;" horiz-adv-x="1280" d="M90 416v839l180 170h713l170 -170v-835l-182 -174h-711zM264 487l68 -67h579l68 67v697l-68 67h-579l-68 -67v-697zM383 487q14 23 26.5 50.5t12.5 95.5v424q0 68 -12.5 95.5t-26.5 49.5h244q41 0 76.5 -15.5t63.5 -43t44 -63.5t16 -79q0 -57 -28.5 -102t-75.5 -74 l59 -192q23 -68 41.5 -95.5t40.5 -50.5h-145h-12h-39q4 12 7 25.5t3 30.5q0 16 -3 37.5t-13 52.5l-52 168h-67v-168q0 -68 11 -95.5t26 -50.5h-144h-53zM543 922h84q35 0 57.5 22.5t22.5 56.5q0 35 -24 58.5t-56 23.5h-84v-26v-135z" />
<glyph unicode="&#xaf;" horiz-adv-x="624" d="M2 1612v41v190q84 -39 184 -39h301q102 0 183 39v-231q-80 41 -183 41h-301q-102 0 -184 -41z" />
<glyph unicode="&#xb0;" horiz-adv-x="401" d="M0 1188v149l90 84h139l86 -84v-147l-92 -86h-139zM86 1225l35 -35h74l32 35v75l-32 35h-74l-35 -35v-75z" />
<glyph unicode="&#xb4;" horiz-adv-x="309" d="M2 1890h59h207q-6 -25 -10 -42t-1 -41.5t12.5 -63.5t27.5 -107l35 -125l-187 84l-12 45q-18 68 -33.5 106t-31 62.5t-30.5 41t-36 40.5z" />
<glyph unicode="&#xb8;" horiz-adv-x="364" d="M35 -408q23 33 32 65t19 71h180q6 10 8 21t2 24q0 10 -2 22t-8 23h-143l-62 61v166h132v-94h122l76 -55v-234l-90 -70h-266z" />
<glyph unicode="&#xbe;" horiz-adv-x="548" />
<glyph unicode="&#xbf;" horiz-adv-x="829" d="M0 76q0 80 33 157l315 539h242q-45 -86 -102.5 -183t-108.5 -189.5t-87 -175.5t-36 -140q0 -47 29.5 -71.5t99.5 -26.5q63 0 109.5 32.5t46.5 90.5q0 39 -23 75h299q-10 -18 -15 -31.5t-8 -27.5t-5.5 -31.5t-8.5 -42.5q-16 -68 -54 -123t-91 -96t-116.5 -63.5 t-133.5 -22.5q-78 0 -147.5 25.5t-122 70.5t-84 105.5t-31.5 128.5zM354 967v182l29 27h180l29 -27v-182l-29 -29h-180z" />
<glyph unicode="&#xc0;" horiz-adv-x="1183" d="M0 0q18 25 38.5 47.5t40 54t37 76.5t29.5 113l72 397h-27q-20 0 -36.5 -2t-28.5 -6l-25 -6q33 55 68 88t72 49l61 330q6 31 7 56.5t1 47.5q0 74 -15 112t-32 75h576q-16 -37 -31.5 -75t-15.5 -110q0 -23 1 -48t7 -58l104 -541q31 0 67 5t77 16q-70 -66 -127 -103l45 -233 q12 -66 28.5 -110t36 -74.5t40 -53t38.5 -47.5h-389q10 31 20.5 62.5t10.5 82.5q0 23 -2.5 49.5t-8.5 61.5l-41 203q-66 8 -130 44t-138 85l-57 -297q-10 -45 -14.5 -77t-4.5 -62q0 -33 8.5 -68t24.5 -84h-387zM299 1890h59h207q-6 -25 -10 -42t-1 -41.5t12 -63.5t28 -107 l35 -125l-187 84l-12 45q-18 68 -33.5 106t-31 62.5t-31 41t-35.5 40.5zM471 797q57 -16 100 -47t80 -60l-104 506z" />
<glyph unicode="&#xc1;" horiz-adv-x="1183" d="M0 0q18 25 38.5 47.5t40 54t37 76.5t29.5 113l72 397h-27q-20 0 -36.5 -2t-28.5 -6l-25 -6q33 55 68 88t72 49l61 330q6 31 7 56.5t1 47.5q0 74 -15 112t-32 75h576q-16 -37 -31.5 -75t-15.5 -110q0 -23 1 -48t7 -58l104 -541q31 0 67 5t77 16q-70 -66 -127 -103l45 -233 q12 -66 28.5 -110t36 -74.5t40 -53t38.5 -47.5h-389q10 31 20.5 62.5t10.5 82.5q0 23 -2.5 49.5t-8.5 61.5l-41 203q-66 8 -130 44t-138 85l-57 -297q-10 -45 -14.5 -77t-4.5 -62q0 -33 8.5 -68t24.5 -84h-387zM461 1511l35 125q18 68 27 107t12.5 63.5t-1 42t-10.5 41.5 h207h60q-20 -25 -36 -41t-31 -40.5t-30.5 -62.5t-34.5 -106l-12 -45zM471 797q57 -16 100 -47t80 -60l-104 506z" />
<glyph unicode="&#xc2;" horiz-adv-x="1183" d="M0 0q18 25 38.5 47.5t40 54t37 76.5t29.5 113l72 397h-27q-20 0 -36.5 -2t-28.5 -6l-25 -6q33 55 68 88t72 49l61 330q6 31 7 56.5t1 47.5q0 74 -15 112t-32 75h576q-16 -37 -31.5 -75t-15.5 -110q0 -23 1 -48t7 -58l104 -541q31 0 67 5t77 16q-70 -66 -127 -103l45 -233 q12 -66 28.5 -110t36 -74.5t40 -53t38.5 -47.5h-389q10 31 20.5 62.5t10.5 82.5q0 23 -2.5 49.5t-8.5 61.5l-41 203q-66 8 -130 44t-138 85l-57 -297q-10 -45 -14.5 -77t-4.5 -62q0 -33 8.5 -68t24.5 -84h-387zM172 1520q43 31 79 67.5t69.5 75.5t64.5 78t61 74h187 q31 -35 61.5 -74t64.5 -78t69.5 -76t78.5 -67h-245q0 20 -3.5 33.5t-11.5 25.5t-21.5 24.5t-33.5 34.5l-53 58l-52 -58q-20 -23 -33.5 -36t-21.5 -24t-12 -24.5t-4 -33.5h-244zM471 797q57 -16 100 -47t80 -60l-104 506z" />
<glyph unicode="&#xc3;" horiz-adv-x="1183" d="M0 0q18 25 38.5 47.5t40 54t37 76.5t29.5 113l72 397h-27q-20 0 -36.5 -2t-28.5 -6l-25 -6q33 55 68 88t72 49l61 330q6 31 7 56.5t1 47.5q0 74 -15 112t-32 75h576q-16 -37 -31.5 -75t-15.5 -110q0 -23 1 -48t7 -58l104 -541q31 0 67 5t77 16q-70 -66 -127 -103l45 -233 q12 -66 28.5 -110t36 -74.5t40 -53t38.5 -47.5h-389q10 31 20.5 62.5t10.5 82.5q0 23 -2.5 49.5t-8.5 61.5l-41 203q-66 8 -130 44t-138 85l-57 -297q-10 -45 -14.5 -77t-4.5 -62q0 -33 8.5 -68t24.5 -84h-387zM156 1561q39 70 84 111.5t104 55t137 1t185 -49.5 q51 -18 98 -15t84 15q43 14 80 39q-29 -74 -73 -113.5t-94 -55t-99.5 -12.5t-86.5 13q-63 18 -104 37t-83 26t-94 -3.5t-138 -48.5zM471 797q57 -16 100 -47t80 -60l-104 506z" />
<glyph unicode="&#xc4;" horiz-adv-x="1183" d="M0 0q18 25 38.5 47.5t40 54t37 76.5t29.5 113l72 397h-27q-20 0 -36.5 -2t-28.5 -6l-25 -6q33 55 68 88t72 49l61 330q6 31 7 56.5t1 47.5q0 74 -15 112t-32 75h576q-16 -37 -31.5 -75t-15.5 -110q0 -23 1 -48t7 -58l104 -541q31 0 67 5t77 16q-70 -66 -127 -103l45 -233 q12 -66 28.5 -110t36 -74.5t40 -53t38.5 -47.5h-389q10 31 20.5 62.5t10.5 82.5q0 23 -2.5 49.5t-8.5 61.5l-41 203q-66 8 -130 44t-138 85l-57 -297q-10 -45 -14.5 -77t-4.5 -62q0 -33 8.5 -68t24.5 -84h-387zM258 1538v182l29 29h180l29 -29v-182l-29 -27h-180zM471 797 q57 -16 100 -47t80 -60l-104 506zM598 1538v182l29 29h180l29 -29v-182l-29 -27h-180z" />
<glyph unicode="&#xc5;" horiz-adv-x="1183" d="M0 0q18 25 38.5 47.5t40 54t37 76.5t29.5 113l72 397h-27q-20 0 -36.5 -2t-28.5 -6l-25 -6q33 55 68 88t72 49l61 330q6 31 7 56.5t1 47.5q0 74 -15 112t-32 75h576q-16 -37 -31.5 -75t-15.5 -110q0 -23 1 -48t7 -58l104 -541q31 0 67 5t77 16q-70 -66 -127 -103l45 -233 q12 -66 28.5 -110t36 -74.5t40 -53t38.5 -47.5h-389q10 31 20.5 62.5t10.5 82.5q0 23 -2.5 49.5t-8.5 61.5l-41 203q-66 8 -130 44t-138 85l-57 -297q-10 -45 -14.5 -77t-4.5 -62q0 -33 8.5 -68t24.5 -84h-387zM367 1591v221l88 80h209l81 -80v-219l-90 -82h-209zM471 797 q57 -16 100 -47t80 -60l-104 506zM471 1657l41 -43h88l39 43v90l-39 43h-88l-41 -43v-90z" />
<glyph unicode="&#xc6;" horiz-adv-x="1675" d="M31 0q23 25 46 47.5t48 54t49.5 76.5t48.5 113l305 848q20 57 27 104q12 74 4 112t-18 75h207l831 2v-318q-47 27 -99.5 52.5t-140.5 25.5h-284v-324h276q43 0 68.5 11.5t48.5 25.5v-315q-23 14 -48.5 26.5t-68.5 12.5h-276v-389h284q39 0 69 5t57.5 15t54 24.5 t59.5 32.5v-317h-836q16 31 32 61.5t26 83.5q10 47 10 111l-4 180h-301l-55 -145q-16 -45 -26.5 -77t-16.5 -62q-6 -33 -4 -68t10 -84h-383zM594 676h205l-15 518z" />
<glyph unicode="&#xc7;" horiz-adv-x="907" d="M2 385v662q0 86 33 159.5t89 129t131 86t161 30.5q70 0 135 -23.5t117.5 -64.5t89.5 -99.5t53 -125.5q6 -25 8 -42.5t5 -30.5t8.5 -26.5t15.5 -31.5h-299q23 41 22 73q0 57 -47 94t-108 37q-72 0 -123 -47t-51 -118v-662q0 -72 51 -119t123 -47q61 0 108 37t47 94 q0 35 -22 76h299q-10 -18 -14.5 -32.5t-7.5 -28t-6 -31t-9 -41.5q-16 -63 -49 -117.5t-81 -94.5t-106.5 -63.5t-121.5 -27.5v-39h122l76 -55v-234l-90 -70h-266q23 33 32 65t19 71h180q6 10 8.5 21t2.5 24q0 10 -2.5 22t-8.5 23h-143l-61 61v119q-68 12 -126.5 47t-101.5 85 t-67.5 115.5t-24.5 139.5z" />
<glyph unicode="&#xc8;" horiz-adv-x="915" d="M0 0q14 25 27.5 47.5t24.5 55t18.5 76.5t7.5 112v444q-18 -4 -32.5 -9t-25.5 -9q-12 -6 -20 -12q29 102 78 153v283q0 68 -7.5 111.5t-18.5 76.5t-24.5 55.5t-27.5 47.5h829v-318q-25 14 -48 27.5t-51 25t-61.5 18.5t-78.5 7h-273v-301q47 -16 87 -43t78 -51.5t79 -43 t90 -18.5q35 0 80 12.5t100 40.5q-74 -129 -140 -181t-134 -52q-55 0 -113.5 26.5t-126.5 67.5v-162v-247h273q39 0 69.5 5t58 15t54.5 24.5t57 32.5v-196v-121h-829zM174 1890h59h207q-6 -25 -10 -42t-1 -41.5t12.5 -63.5t27.5 -107l35 -125l-187 84l-12 45 q-18 68 -33.5 106t-31 62.5t-30.5 41t-36 40.5z" />
<glyph unicode="&#xc9;" horiz-adv-x="925" d="M0 0q14 25 27.5 47.5t24.5 55t18.5 76.5t7.5 112v444q-18 -4 -32.5 -9t-25.5 -9q-12 -6 -20 -12q29 102 78 153v283q0 68 -7.5 111.5t-18.5 76.5t-24.5 55.5t-27.5 47.5h829v-318q-25 14 -48 27.5t-51 25t-61.5 18.5t-78.5 7h-273v-301q47 -16 87 -43t78 -51.5t79 -43 t90 -18.5q35 0 80 12.5t100 40.5q-74 -129 -140 -181t-134 -52q-55 0 -113.5 26.5t-126.5 67.5v-162v-247h273q39 0 69.5 5t58 15t54.5 24.5t57 32.5v-196v-121h-829zM369 1511l34 125q18 68 27.5 107t12.5 63.5t-1 42t-10 41.5h207h59q-20 -25 -35.5 -41t-31 -40.5 t-30.5 -62.5t-34 -106l-12 -45z" />
<glyph unicode="&#xca;" horiz-adv-x="927" d="M0 0q14 25 27.5 47.5t24.5 55t18.5 76.5t7.5 112v444q-18 -4 -32.5 -9t-25.5 -9q-12 -6 -20 -12q29 102 78 153v283q0 68 -7.5 111.5t-18.5 76.5t-24.5 55.5t-27.5 47.5h829v-318q-25 14 -48 27.5t-51 25t-61.5 18.5t-78.5 7h-273v-301q47 -16 87 -43t78 -51.5t79 -43 t90 -18.5q35 0 80 12.5t100 40.5q-74 -129 -140 -181t-134 -52q-55 0 -113.5 26.5t-126.5 67.5v-162v-247h273q39 0 69.5 5t58 15t54.5 24.5t57 32.5v-196v-121h-829zM53 1520q43 31 79 67.5t70 75.5t64.5 78t61.5 74h186q31 -35 61.5 -74t64.5 -78t69.5 -76t78.5 -67h-245 q0 20 -3 33.5t-11.5 25.5t-21.5 24.5t-34 34.5l-53 58l-51 -58q-20 -23 -33.5 -36t-22 -24t-12.5 -24.5t-4 -33.5h-244z" />
<glyph unicode="&#xcb;" horiz-adv-x="925" d="M0 0q14 25 27.5 47.5t24.5 55t18.5 76.5t7.5 112v444q-18 -4 -32.5 -9t-25.5 -9q-12 -6 -20 -12q29 102 78 153v283q0 68 -7.5 111.5t-18.5 76.5t-24.5 55.5t-27.5 47.5h829v-318q-25 14 -48 27.5t-51 25t-61.5 18.5t-78.5 7h-273v-301q47 -16 87 -43t78 -51.5t79 -43 t90 -18.5q35 0 80 12.5t100 40.5q-74 -129 -140 -181t-134 -52q-55 0 -113.5 26.5t-126.5 67.5v-162v-247h273q39 0 69.5 5t58 15t54.5 24.5t57 32.5v-196v-121h-829zM164 1538v182l29 29h180l28 -29v-182l-28 -27h-180zM504 1538v182l28 29h181l28 -29v-182l-28 -27h-181z " />
<glyph unicode="&#xcc;" horiz-adv-x="499" d="M-53 1890h53h205q-6 -25 -10.5 -42t-1 -41.5t12.5 -63.5t27 -107l35 -125l-186 84l-12 45q-18 68 -32.5 106t-28 62.5t-28 41t-34.5 40.5zM0 0q14 25 27.5 47.5t24.5 55t18.5 76.5t7.5 112v850q0 68 -7.5 111.5t-18.5 76.5t-24.5 55.5t-27.5 47.5h291h102 q-12 -25 -26.5 -47.5t-24.5 -55.5t-17.5 -77t-7.5 -111v-850q0 -68 7.5 -112t17.5 -76.5t24.5 -55t26.5 -47.5h-102h-187h-104z" />
<glyph unicode="&#xcd;" horiz-adv-x="499" d="M0 0q14 25 27.5 47.5t24.5 55t18.5 76.5t7.5 112v850q0 68 -7.5 111.5t-18.5 76.5t-24.5 55.5t-27.5 47.5h291h102q-12 -25 -26.5 -47.5t-24.5 -55.5t-17.5 -77t-7.5 -111v-850q0 -68 7.5 -112t17.5 -76.5t24.5 -55t26.5 -47.5h-102h-187h-104zM137 1511l35 125 q18 68 27.5 107t12.5 63.5t-1 42t-10 41.5h207h59q-20 -25 -35.5 -41t-31 -40.5t-31 -62.5t-33.5 -106l-12 -45z" />
<glyph unicode="&#xce;" horiz-adv-x="720" d="M39 1520q43 31 79 67.5t68.5 75.5t63.5 78t61 74h187q31 -35 61.5 -74t64 -78t69.5 -76t79 -67h-246q0 20 -3 33.5t-11 25.5t-21.5 24.5t-33.5 34.5l-54 58l-51 -58q-20 -23 -33.5 -36t-21.5 -24t-12 -24.5t-4 -33.5h-242zM201 0q14 25 27.5 47.5t24.5 55t18.5 76.5 t7.5 112v850q0 68 -7.5 111.5t-18.5 76.5t-24.5 55.5t-27.5 47.5h291h102q-12 -25 -26.5 -47.5t-25 -55.5t-17.5 -77t-7 -111v-850q0 -68 7 -112t17.5 -76.5t25 -55t26.5 -47.5h-102h-187h-104z" />
<glyph unicode="&#xcf;" horiz-adv-x="641" d="M61 1538v182l29 29h178l29 -29v-182l-29 -27h-178zM141 0q14 25 27.5 47.5t25 55t18.5 76.5t7 112v850q0 68 -7 111.5t-18.5 76.5t-24.5 55.5t-28 47.5h291h103q-12 -25 -26.5 -47.5t-25 -55.5t-17.5 -77t-7 -111v-850q0 -68 7 -112t17.5 -76.5t24.5 -55t27 -47.5h-103 h-186h-105zM399 1538v182l29 29h180l29 -29v-182l-29 -27h-180z" />
<glyph unicode="&#xd0;" horiz-adv-x="999" d="M0 0q14 25 27.5 47.5t23.5 55t17.5 76.5t7.5 112v358q-35 -8 -76 -28v41v245q41 -20 76 -28v262q0 68 -7.5 111.5t-17.5 76.5t-23.5 55.5t-27.5 47.5h481q84 0 158 -33t129 -88.5t87 -129t32 -155.5v-620q0 -84 -32 -158t-87 -129.5t-129 -87t-158 -31.5h-284h-121h-76z M315 240h166q68 0 117 49t49 117v620q0 68 -49 117t-117 49h-166v-326h35q102 0 185 41v-286q-82 41 -185 41h-35v-422z" />
<glyph unicode="&#xd1;" horiz-adv-x="1103" d="M0 0q12 20 24.5 40.5t23.5 45.5t18.5 56.5t7.5 78.5v920q0 68 -6.5 111.5t-17.5 76.5t-24.5 55.5t-25.5 47.5h406l270 -783l4 543q0 51 -7 87t-18.5 62.5t-25 47t-25.5 43.5h289h104q-14 -25 -27.5 -47.5t-24.5 -55.5t-18 -77t-7 -111v-850q0 -68 7 -112t18 -76.5 t24.5 -55t27.5 -47.5h-411q16 23 26.5 40t10.5 40v15t-5 18l-303 917l-2 -739q0 -68 7.5 -112t18.5 -76.5t24.5 -55t27.5 -47.5h-391zM115 1561q39 70 84 111.5t104 55t137 1t185 -49.5q51 -18 98 -15t84 15q43 14 80 39q-29 -74 -73 -113.5t-94 -55t-99 -12.5t-86 13 q-63 18 -104.5 37t-83.5 26t-94 -3.5t-138 -48.5z" />
<glyph unicode="&#xd2;" horiz-adv-x="1019" d="M0 385v662q0 86 35 159.5t96.5 128t144.5 86t179 31.5q94 0 177 -31.5t144.5 -86t97 -128t35.5 -159.5v-662q0 -86 -35.5 -158.5t-97 -126t-144.5 -83t-177 -29.5q-96 0 -179 29.5t-144.5 83t-96.5 126t-35 158.5zM227 1890h60h207q-6 -25 -10.5 -42t-1.5 -41.5 t12.5 -63.5t27.5 -107l35 -125l-186 84l-13 45q-18 68 -33.5 106t-30.5 62.5t-30.5 41t-36.5 40.5zM260 385q0 -72 57.5 -119t137.5 -47t137 47t57 119v662q0 72 -57 118.5t-137 46.5t-137.5 -47t-57.5 -118v-662z" />
<glyph unicode="&#xd3;" horiz-adv-x="1021" d="M0 385v662q0 86 35 159.5t96.5 128t144.5 86t179 31.5q94 0 177 -31.5t144.5 -86t97 -128t35.5 -159.5v-662q0 -86 -35.5 -158.5t-97 -126t-144.5 -83t-177 -29.5q-96 0 -179 29.5t-144.5 83t-96.5 126t-35 158.5zM209 1890h59h207q-6 -25 -10 -42t-1 -41.5t12 -63.5 t28 -107l35 -125l-187 84l-12 45q-18 68 -33.5 106t-31 62.5t-31 41t-35.5 40.5zM260 385q0 -72 57.5 -119t137.5 -47t137 47t57 119v662q0 72 -57 118.5t-137 46.5t-137.5 -47t-57.5 -118v-662z" />
<glyph unicode="&#xd4;" horiz-adv-x="1019" d="M0 385v662q0 86 35 159.5t96.5 128t144.5 86t179 31.5q94 0 177 -31.5t144.5 -86t97 -128t35.5 -159.5v-662q0 -86 -35.5 -158.5t-97 -126t-144.5 -83t-177 -29.5q-96 0 -179 29.5t-144.5 83t-96.5 126t-35 158.5zM88 1520q43 31 79 67.5t69.5 75.5t64.5 78t61 74h187 q31 -35 61.5 -74t64.5 -78t69.5 -76t78.5 -67h-245q0 20 -3.5 33.5t-11.5 25.5t-21.5 24.5t-33.5 34.5l-53 58l-52 -58q-20 -23 -33.5 -36t-21.5 -24t-12 -24.5t-4 -33.5h-244zM260 385q0 -72 57.5 -119t137.5 -47t137 47t57 119v662q0 72 -57 118.5t-137 46.5t-137.5 -47 t-57.5 -118v-662z" />
<glyph unicode="&#xd5;" horiz-adv-x="1021" d="M0 385v662q0 86 35 159.5t96.5 128t144.5 86t179 31.5q94 0 177 -31.5t144.5 -86t97 -128t35.5 -159.5v-662q0 -86 -35.5 -158.5t-97 -126t-144.5 -83t-177 -29.5q-96 0 -179 29.5t-144.5 83t-96.5 126t-35 158.5zM70 1561q39 70 84 111.5t104 55t137 1t185 -49.5 q51 -18 98 -15t84 15q43 14 80 39q-29 -74 -73 -113.5t-94 -55t-99.5 -12.5t-86.5 13q-63 18 -104 37t-83 26t-94 -3.5t-138 -48.5zM260 385q0 -72 57.5 -119t137.5 -47t137 47t57 119v662q0 72 -57 118.5t-137 46.5t-137.5 -47t-57.5 -118v-662z" />
<glyph unicode="&#xd6;" horiz-adv-x="1019" d="M0 385v662q0 86 35 159.5t96.5 128t144.5 86t179 31.5q94 0 177 -31.5t144.5 -86t97 -128t35.5 -159.5v-662q0 -86 -35.5 -158.5t-97 -126t-144.5 -83t-177 -29.5q-96 0 -179 29.5t-144.5 83t-96.5 126t-35 158.5zM170 1538v182l29 29h180l29 -29v-182l-29 -27h-180z M260 385q0 -72 57.5 -119t137.5 -47t137 47t57 119v662q0 72 -57 118.5t-137 46.5t-137.5 -47t-57.5 -118v-662zM510 1538v182l29 29h180l29 -29v-182l-29 -27h-180z" />
<glyph unicode="&#xd7;" horiz-adv-x="755" d="M0 922l186 186q16 -47 42 -86t61 -74l37 -37l32 31q37 35 60.5 74t40.5 86l188 -189q-88 -31 -158 -100l-32 -33l24 -24q35 -35 74 -60.5t86 -42.5l-29 -28l-157 -158q-16 47 -42 86t-61 74l-24 24l-33 -33q-70 -70 -100 -157l-29 28l-160 160q47 16 86 40t74 61l31 32 l-37 37q-35 35 -74 60.5t-86 42.5z" />
<glyph unicode="&#xd8;" horiz-adv-x="1200" d="M0 0q39 33 66.5 66.5t62.5 93.5q-35 47 -54.5 104.5t-19.5 120.5v662q0 86 35 159.5t96.5 128t144.5 86t179 31.5q72 0 137.5 -18.5t118.5 -51.5q4 12 4 24.5v25.5h330q-23 -20 -42.5 -41t-39 -46.5t-41 -59.5t-47.5 -83q35 -76 35 -155v-662q0 -86 -36 -158.5 t-97.5 -126t-144.5 -83t-177 -29.5q-49 0 -96 7t-88 17v-12h-326zM315 504l342 637l7 10q-58 61 -154 61q-80 0 -137.5 -47t-57.5 -118v-543zM412 240q41 -21 98 -21q80 0 137.5 47t57.5 119v399l-267 -493z" />
<glyph unicode="&#xd9;" horiz-adv-x="1136" d="M0 1434h291h125q-14 -25 -27.5 -47.5t-25 -55.5t-18.5 -77t-7 -111v-758q0 -35 14.5 -64.5t39 -52t58 -36t72.5 -13.5q76 0 129.5 49t53.5 117v758q0 68 -7.5 111.5t-18.5 76.5t-24.5 55.5t-27.5 47.5h291h124q-14 -25 -27.5 -47.5t-24.5 -55.5t-18 -77t-7 -111v-758 q0 -84 -35 -156.5t-95.5 -126t-141.5 -83t-171 -29.5q-92 0 -173 29.5t-141.5 83t-95 126t-34.5 156.5v758q0 68 -7.5 111.5t-18.5 76.5t-24.5 55.5t-27.5 47.5zM274 1890h60h207q-6 -25 -10.5 -42t-1.5 -41.5t12.5 -63.5t27.5 -107l35 -125l-186 84l-12 45q-18 68 -34 106 t-31 62.5t-30.5 41t-36.5 40.5z" />
<glyph unicode="&#xda;" horiz-adv-x="1140" d="M0 1434h291h125q-14 -25 -27.5 -47.5t-25 -55.5t-18.5 -77t-7 -111v-758q0 -35 14.5 -64.5t39 -52t58 -36t72.5 -13.5q76 0 129.5 49t53.5 117v758q0 68 -7.5 111.5t-18.5 76.5t-24.5 55.5t-27.5 47.5h291h124q-14 -25 -27.5 -47.5t-24.5 -55.5t-18 -77t-7 -111v-758 q0 -84 -35 -156.5t-95.5 -126t-141.5 -83t-171 -29.5q-92 0 -173 29.5t-141.5 83t-95 126t-34.5 156.5v758q0 68 -7.5 111.5t-18.5 76.5t-24.5 55.5t-27.5 47.5zM461 1511l35 125q18 68 27 107t12.5 63.5t-1 42t-10.5 41.5h207h60q-20 -25 -36 -41t-31 -40.5t-30.5 -62.5 t-34.5 -106l-12 -45z" />
<glyph unicode="&#xdb;" horiz-adv-x="1140" d="M0 1434h291h125q-14 -25 -27.5 -47.5t-25 -55.5t-18.5 -77t-7 -111v-758q0 -35 14.5 -64.5t39 -52t58 -36t72.5 -13.5q76 0 129.5 49t53.5 117v758q0 68 -7.5 111.5t-18.5 76.5t-24.5 55.5t-27.5 47.5h291h124q-14 -25 -27.5 -47.5t-24.5 -55.5t-18 -77t-7 -111v-758 q0 -84 -35 -156.5t-95.5 -126t-141.5 -83t-171 -29.5q-92 0 -173 29.5t-141.5 83t-95 126t-34.5 156.5v758q0 68 -7.5 111.5t-18.5 76.5t-24.5 55.5t-27.5 47.5zM152 1520q43 31 78.5 67.5t69.5 75.5t64.5 78t61.5 74h186q31 -35 62 -74t64.5 -78t69.5 -76t79 -67h-246 q0 20 -3 33.5t-11.5 25.5t-21.5 24.5t-34 34.5l-53 58l-51 -58q-20 -23 -33.5 -36t-22 -24t-12.5 -24.5t-4 -33.5h-243z" />
<glyph unicode="&#xdc;" horiz-adv-x="1136" d="M0 1434h291h125q-14 -25 -27.5 -47.5t-25 -55.5t-18.5 -77t-7 -111v-758q0 -35 14.5 -64.5t39 -52t58 -36t72.5 -13.5q76 0 129.5 49t53.5 117v758q0 68 -7.5 111.5t-18.5 76.5t-24.5 55.5t-27.5 47.5h291h124q-14 -25 -27.5 -47.5t-24.5 -55.5t-18 -77t-7 -111v-758 q0 -84 -35 -156.5t-95.5 -126t-141.5 -83t-171 -29.5q-92 0 -173 29.5t-141.5 83t-95 126t-34.5 156.5v758q0 68 -7.5 111.5t-18.5 76.5t-24.5 55.5t-27.5 47.5zM238 1538v182l28 29h180l29 -29v-182l-29 -27h-180zM578 1538v182l28 29h180l29 -29v-182l-29 -27h-180z" />
<glyph unicode="&#xdd;" horiz-adv-x="1101" d="M0 1432h426q-20 -76 -18 -136.5t17 -116t40.5 -111.5t54.5 -124q27 68 53.5 124t43 111.5t18.5 116t-19 136.5h426q-33 -35 -65.5 -68t-61.5 -92l-274 -561v-23v-397q0 -68 7 -112t17.5 -76.5t25 -55t26.5 -47.5h-76h-27h-94h-92h-27h-77q14 25 27.5 47.5t24.5 55 t18 76.5t7 112v334v86q-68 141 -136 281.5t-140 279.5q-31 59 -62.5 92t-62.5 68zM274 1890h60h207q-6 -25 -10.5 -42t-1.5 -41.5t12.5 -63.5t27.5 -107l35 -125l-186 84l-12 45q-18 68 -34 106t-31 62.5t-30.5 41t-36.5 40.5z" />
<glyph unicode="&#xde;" horiz-adv-x="950" d="M0 0q25 39 39 71.5t23.5 65.5t12.5 69t3 85v850q0 49 -3 85t-12.5 68.5t-23.5 64.5t-39 73h393q-31 -55 -47 -96.5t-24 -104.5h165q82 0 155 -32t128 -87t87 -128t32 -155q0 -84 -32 -156.5t-86 -126.5t-128 -86t-156 -32h-170v-137q0 -47 3.5 -84t12.5 -70t24.5 -65.5 t37.5 -71.5h-395zM317 668h170q66 0 114 48t48 113q0 66 -48 114t-114 48h-168q-2 -12 -2 -25.5v-25.5v-272z" />
<glyph unicode="&#xdf;" horiz-adv-x="1816" d="M-23 416h299q-14 -20 -19 -40t-5 -38q0 -55 45 -91t109 -36q53 0 92 39t39 82q0 31 -27 72.5t-69 91t-94 105t-103 112.5q-49 55 -93.5 104t-78 95t-53 90.5t-19.5 87.5q0 82 35 148.5t91 113.5t131 73.5t155 26.5q70 0 134 -22.5t116.5 -63.5t90.5 -99.5t52 -127.5 q4 -25 6 -42.5t4 -30.5t7 -26.5t16 -31.5h-308q25 39 25 77q0 55 -46 91t-108 36q-27 0 -50 -11t-41.5 -27.5t-29 -39t-10.5 -42.5q0 -39 40 -94.5t99.5 -120t129 -134t129 -139t99.5 -134t42 -118.5v-18q0 -82 -35 -147.5t-91 -111.5t-131 -70.5t-155 -24.5 q-72 0 -137 21.5t-118.5 61t-89.5 96t-48 126.5q-6 49 -8 72.5t-19 58.5zM864 416h307q-14 -20 -19 -40t-5 -38q0 -55 45 -91t108 -36q53 0 92.5 39t39.5 82q0 31 -27 72.5t-69 91t-94 105t-103 112.5q-49 55 -93.5 104t-78 95t-53 90.5t-19.5 87.5q0 82 35 148.5t91 113.5 t131 73.5t155 26.5q70 0 134 -22.5t116.5 -63.5t90.5 -99.5t52 -127.5q4 -25 6 -42.5t4 -30.5t7 -26.5t16 -31.5h-308q25 39 25 77q0 55 -46 91t-108 36q-27 0 -50 -11t-41.5 -27.5t-29 -39t-10.5 -42.5q0 -39 40 -94.5t99.5 -120t129 -134t129 -139t99.5 -134t42 -118.5 v-18q0 -82 -35 -147.5t-91 -111.5t-131 -70.5t-155 -24.5q-72 0 -136 21.5t-117.5 61t-90.5 96t-49 126.5q-4 25 -6 42t-5 30.5t-8.5 26.5t-15.5 32z" />
<glyph unicode="&#xe0;" horiz-adv-x="1181" d="M0 0q18 25 38.5 47.5t40 54t37 76.5t29.5 113l156 848q6 31 7 56.5t1 47.5q0 74 -15 112t-32 75h576q-16 -37 -31.5 -75t-15.5 -108q0 -23 1 -49.5t7 -56.5l166 -856q12 -66 29.5 -110t36 -75.5t39 -54t38.5 -45.5h-391q12 31 22.5 61.5t10.5 83.5q0 23 -2.5 49.5 t-8.5 61.5l-37 180h-301l-28 -145q-10 -45 -14.5 -77t-4.5 -62q0 -33 8.5 -68t24.5 -84h-387zM299 1890h59h207q-6 -25 -10 -42t-1 -41.5t12 -63.5t28 -107l35 -125l-187 84l-12 45q-18 68 -33.5 106t-31 62.5t-31 41t-35.5 40.5zM449 676h204l-106 518z" />
<glyph unicode="&#xe1;" horiz-adv-x="1181" d="M0 0q18 25 38.5 47.5t40 54t37 76.5t29.5 113l156 848q6 31 7 56.5t1 47.5q0 74 -15 112t-32 75h576q-16 -37 -31.5 -75t-15.5 -108q0 -23 1 -49.5t7 -56.5l166 -856q12 -66 29.5 -110t36 -75.5t39 -54t38.5 -45.5h-391q12 31 22.5 61.5t10.5 83.5q0 23 -2.5 49.5 t-8.5 61.5l-37 180h-301l-28 -145q-10 -45 -14.5 -77t-4.5 -62q0 -33 8.5 -68t24.5 -84h-387zM449 676h204l-106 518zM461 1511l35 125q18 68 27 107t12.5 63.5t-1 42t-10.5 41.5h207h60q-20 -25 -36 -41t-31 -40.5t-30.5 -62.5t-34.5 -106l-12 -45z" />
<glyph unicode="&#xe2;" horiz-adv-x="1181" d="M0 0q18 25 38.5 47.5t40 54t37 76.5t29.5 113l156 848q6 31 7 56.5t1 47.5q0 74 -15 112t-32 75h576q-16 -37 -31.5 -75t-15.5 -108q0 -23 1 -49.5t7 -56.5l166 -856q12 -66 29.5 -110t36 -75.5t39 -54t38.5 -45.5h-391q12 31 22.5 61.5t10.5 83.5q0 23 -2.5 49.5 t-8.5 61.5l-37 180h-301l-28 -145q-10 -45 -14.5 -77t-4.5 -62q0 -33 8.5 -68t24.5 -84h-387zM172 1520q43 31 79 67.5t69.5 75.5t64.5 78t61 74h187q31 -35 61.5 -74t64.5 -78t69.5 -76t78.5 -67h-245q0 20 -3.5 33.5t-11.5 25.5t-21.5 24.5t-33.5 34.5l-53 58l-52 -58 q-20 -23 -33.5 -36t-21.5 -24t-12 -24.5t-4 -33.5h-244zM449 676h204l-106 518z" />
<glyph unicode="&#xe3;" horiz-adv-x="1181" d="M0 0q18 25 38.5 47.5t40 54t37 76.5t29.5 113l156 848q6 31 7 56.5t1 47.5q0 74 -15 112t-32 75h576q-16 -37 -31.5 -75t-15.5 -108q0 -23 1 -49.5t7 -56.5l166 -856q12 -66 29.5 -110t36 -75.5t39 -54t38.5 -45.5h-391q12 31 22.5 61.5t10.5 83.5q0 23 -2.5 49.5 t-8.5 61.5l-37 180h-301l-28 -145q-10 -45 -14.5 -77t-4.5 -62q0 -33 8.5 -68t24.5 -84h-387zM156 1561q39 70 84 111.5t104 55t137 1t185 -49.5q51 -18 98 -15t84 15q43 14 80 39q-29 -74 -73 -113.5t-94 -55t-99.5 -12.5t-86.5 13q-63 18 -104 37t-83 26t-94 -3.5 t-138 -48.5zM449 676h204l-106 518z" />
<glyph unicode="&#xe4;" horiz-adv-x="1181" d="M0 0q18 25 38.5 47.5t40 54t37 76.5t29.5 113l156 848q6 31 7 56.5t1 47.5q0 74 -15 112t-32 75h576q-16 -37 -31.5 -75t-15.5 -108q0 -23 1 -49.5t7 -56.5l166 -856q12 -66 29.5 -110t36 -75.5t39 -54t38.5 -45.5h-391q12 31 22.5 61.5t10.5 83.5q0 23 -2.5 49.5 t-8.5 61.5l-37 180h-301l-28 -145q-10 -45 -14.5 -77t-4.5 -62q0 -33 8.5 -68t24.5 -84h-387zM258 1538v182l29 29h180l29 -29v-182l-29 -27h-180zM449 676h204l-106 518zM598 1538v182l29 29h180l29 -29v-182l-29 -27h-180z" />
<glyph unicode="&#xe5;" horiz-adv-x="1181" d="M0 0q18 25 38.5 47.5t40 54t37 76.5t29.5 113l156 848q6 31 7 56.5t1 47.5q0 74 -15 112t-32 75h576q-16 -37 -31.5 -75t-15.5 -108q0 -23 1 -49.5t7 -56.5l166 -856q12 -66 29.5 -110t36 -75.5t39 -54t38.5 -45.5h-391q12 31 22.5 61.5t10.5 83.5q0 23 -2.5 49.5 t-8.5 61.5l-37 180h-301l-28 -145q-10 -45 -14.5 -77t-4.5 -62q0 -33 8.5 -68t24.5 -84h-387zM367 1591v221l88 80h209l81 -80v-219l-90 -82h-209zM449 676h204l-106 518zM471 1657l41 -43h88l39 43v90l-39 43h-88l-41 -43v-90z" />
<glyph unicode="&#xe6;" horiz-adv-x="1675" d="M31 0q23 25 46 47.5t48 54t49.5 76.5t48.5 113l305 848q20 57 27 104q12 74 4 112t-18 75h207l831 2v-318q-47 27 -99.5 52.5t-140.5 25.5h-284v-324h276q43 0 68.5 11.5t48.5 25.5v-315q-23 14 -48.5 26.5t-68.5 12.5h-276v-389h284q39 0 69 5t57.5 15t54 24.5 t59.5 32.5v-317h-836q16 31 32 61.5t26 83.5q10 47 10 111l-4 180h-301l-55 -145q-16 -45 -26.5 -77t-16.5 -62q-6 -33 -4 -68t10 -84h-383zM594 676h205l-15 518z" />
<glyph unicode="&#xe7;" horiz-adv-x="907" d="M2 385v662q0 86 33 159.5t89 129t131 86t161 30.5q70 0 135 -23.5t117.5 -64.5t89.5 -99.5t53 -125.5q6 -25 8 -42.5t5 -30.5t8.5 -26.5t15.5 -31.5h-299q23 41 22 73q0 57 -47 94t-108 37q-72 0 -123 -47t-51 -118v-662q0 -72 51 -119t123 -47q61 0 108 37t47 94 q0 35 -22 76h299q-10 -18 -14.5 -32.5t-7.5 -28t-6 -31t-9 -41.5q-16 -63 -49 -117.5t-81 -94.5t-106.5 -63.5t-121.5 -27.5v-39h122l76 -55v-234l-90 -70h-266q23 33 32 65t19 71h180q6 10 8.5 21t2.5 24q0 10 -2.5 22t-8.5 23h-143l-61 61v119q-68 12 -126.5 47t-101.5 85 t-67.5 115.5t-24.5 139.5z" />
<glyph unicode="&#xe8;" horiz-adv-x="927" d="M0 0q14 25 27.5 47.5t24.5 55t18.5 76.5t7.5 112v850q0 68 -7.5 111.5t-18.5 76.5t-24.5 55.5t-27.5 47.5h831v-318q-47 27 -99 52.5t-140 25.5h-275v-324h267q43 0 68.5 11.5t47.5 25.5v-315q-23 14 -48 26.5t-68 12.5h-267v-389h275q39 0 68.5 5t57 15t54.5 24.5 t59 32.5v-196v-121h-831zM174 1890h59h207q-6 -25 -10 -42t-1 -41.5t12.5 -63.5t27.5 -107l35 -125l-187 84l-12 45q-18 68 -33.5 106t-31 62.5t-30.5 41t-36 40.5z" />
<glyph unicode="&#xe9;" horiz-adv-x="927" d="M0 0q14 25 27.5 47.5t24.5 55t18.5 76.5t7.5 112v850q0 68 -7.5 111.5t-18.5 76.5t-24.5 55.5t-27.5 47.5h831v-318q-47 27 -99 52.5t-140 25.5h-275v-324h267q43 0 68.5 11.5t47.5 25.5v-315q-23 14 -48 26.5t-68 12.5h-267v-389h275q39 0 68.5 5t57 15t54.5 24.5 t59 32.5v-196v-121h-831zM369 1511l34 125q18 68 27.5 107t12.5 63.5t-1 42t-10 41.5h207h59q-20 -25 -35.5 -41t-31 -40.5t-30.5 -62.5t-34 -106l-12 -45z" />
<glyph unicode="&#xea;" horiz-adv-x="927" d="M0 0q14 25 27.5 47.5t24.5 55t18.5 76.5t7.5 112v850q0 68 -7.5 111.5t-18.5 76.5t-24.5 55.5t-27.5 47.5h831v-318q-47 27 -99 52.5t-140 25.5h-275v-324h267q43 0 68.5 11.5t47.5 25.5v-315q-23 14 -48 26.5t-68 12.5h-267v-389h275q39 0 68.5 5t57 15t54.5 24.5 t59 32.5v-196v-121h-831zM53 1520q43 31 79 67.5t70 75.5t64.5 78t61.5 74h186q31 -35 61.5 -74t64.5 -78t69.5 -76t78.5 -67h-245q0 20 -3 33.5t-11.5 25.5t-21.5 24.5t-34 34.5l-53 58l-51 -58q-20 -23 -33.5 -36t-22 -24t-12.5 -24.5t-4 -33.5h-244z" />
<glyph unicode="&#xeb;" horiz-adv-x="927" d="M0 0q14 25 27.5 47.5t24.5 55t18.5 76.5t7.5 112v850q0 68 -7.5 111.5t-18.5 76.5t-24.5 55.5t-27.5 47.5h831v-318q-47 27 -99 52.5t-140 25.5h-275v-324h267q43 0 68.5 11.5t47.5 25.5v-315q-23 14 -48 26.5t-68 12.5h-267v-389h275q39 0 68.5 5t57 15t54.5 24.5 t59 32.5v-196v-121h-831zM164 1538v182l29 29h180l28 -29v-182l-28 -27h-180zM504 1538v182l28 29h181l28 -29v-182l-28 -27h-181z" />
<glyph unicode="&#xec;" horiz-adv-x="499" d="M-53 1890h53h205q-6 -25 -10.5 -42t-1 -41.5t12.5 -63.5t27 -107l35 -125l-186 84l-12 45q-18 68 -32.5 106t-28 62.5t-28 41t-34.5 40.5zM0 0q14 25 27.5 47.5t24.5 55t18.5 76.5t7.5 112v850q0 68 -7.5 111.5t-18.5 76.5t-24.5 55.5t-27.5 47.5h291h102 q-12 -25 -26.5 -47.5t-24.5 -55.5t-17.5 -77t-7.5 -111v-850q0 -68 7.5 -112t17.5 -76.5t24.5 -55t26.5 -47.5h-102h-187h-104z" />
<glyph unicode="&#xed;" horiz-adv-x="499" d="M0 0q14 25 27.5 47.5t24.5 55t18.5 76.5t7.5 112v850q0 68 -7.5 111.5t-18.5 76.5t-24.5 55.5t-27.5 47.5h291h102q-12 -25 -26.5 -47.5t-24.5 -55.5t-17.5 -77t-7.5 -111v-850q0 -68 7.5 -112t17.5 -76.5t24.5 -55t26.5 -47.5h-102h-187h-104zM137 1511l35 125 q18 68 27.5 107t12.5 63.5t-1 42t-10 41.5h207h59q-20 -25 -35.5 -41t-31 -40.5t-31 -62.5t-33.5 -106l-12 -45z" />
<glyph unicode="&#xee;" horiz-adv-x="720" d="M39 1520q43 31 79 67.5t68.5 75.5t63.5 78t61 74h187q31 -35 61.5 -74t64 -78t69.5 -76t79 -67h-246q0 20 -3 33.5t-11 25.5t-21.5 24.5t-33.5 34.5l-54 58l-51 -58q-20 -23 -33.5 -36t-21.5 -24t-12 -24.5t-4 -33.5h-242zM201 0q14 25 27.5 47.5t24.5 55t18.5 76.5 t7.5 112v850q0 68 -7.5 111.5t-18.5 76.5t-24.5 55.5t-27.5 47.5h291h102q-12 -25 -26.5 -47.5t-25 -55.5t-17.5 -77t-7 -111v-850q0 -68 7 -112t17.5 -76.5t25 -55t26.5 -47.5h-102h-187h-104z" />
<glyph unicode="&#xef;" horiz-adv-x="641" d="M61 1538v182l29 29h178l29 -29v-182l-29 -27h-178zM141 0q14 25 27.5 47.5t25 55t18.5 76.5t7 112v850q0 68 -7 111.5t-18.5 76.5t-24.5 55.5t-28 47.5h291h103q-12 -25 -26.5 -47.5t-25 -55.5t-17.5 -77t-7 -111v-850q0 -68 7 -112t17.5 -76.5t24.5 -55t27 -47.5h-103 h-186h-105zM399 1538v182l29 29h180l29 -29v-182l-29 -27h-180z" />
<glyph unicode="&#xf0;" horiz-adv-x="999" d="M0 0q14 25 27.5 47.5t23.5 55t17.5 76.5t7.5 112v358q-35 -8 -76 -28v41v245q41 -20 76 -28v262q0 68 -7.5 111.5t-17.5 76.5t-23.5 55.5t-27.5 47.5h481q84 0 158 -33t129 -88.5t87 -129t32 -155.5v-620q0 -84 -32 -158t-87 -129.5t-129 -87t-158 -31.5h-284h-121h-76z M315 240h166q68 0 117 49t49 117v620q0 68 -49 117t-117 49h-166v-326h35q102 0 185 41v-286q-82 41 -185 41h-35v-422z" />
<glyph unicode="&#xf1;" horiz-adv-x="1103" d="M0 0q12 20 24.5 40.5t23.5 45.5t18.5 56.5t7.5 78.5v920q0 68 -6.5 111.5t-17.5 76.5t-24.5 55.5t-25.5 47.5h406l270 -783l4 543q0 51 -7 87t-18.5 62.5t-25 47t-25.5 43.5h289h104q-14 -25 -27.5 -47.5t-24.5 -55.5t-18 -77t-7 -111v-850q0 -68 7 -112t18 -76.5 t24.5 -55t27.5 -47.5h-411q16 23 26.5 40t10.5 40v15t-5 18l-303 917l-2 -739q0 -68 7.5 -112t18.5 -76.5t24.5 -55t27.5 -47.5h-391zM115 1561q39 70 84 111.5t104 55t137 1t185 -49.5q51 -18 98 -15t84 15q43 14 80 39q-29 -74 -73 -113.5t-94 -55t-99 -12.5t-86 13 q-63 18 -104.5 37t-83.5 26t-94 -3.5t-138 -48.5z" />
<glyph unicode="&#xf2;" horiz-adv-x="1019" d="M0 385v662q0 86 35 159.5t96.5 128t144.5 86t179 31.5q94 0 177 -31.5t144.5 -86t97 -128t35.5 -159.5v-662q0 -86 -35.5 -158.5t-97 -126t-144.5 -83t-177 -29.5q-96 0 -179 29.5t-144.5 83t-96.5 126t-35 158.5zM227 1890h60h207q-6 -25 -10.5 -42t-1.5 -41.5 t12.5 -63.5t27.5 -107l35 -125l-186 84l-13 45q-18 68 -33.5 106t-30.5 62.5t-30.5 41t-36.5 40.5zM260 385q0 -72 57.5 -119t137.5 -47t137 47t57 119v662q0 72 -57 118.5t-137 46.5t-137.5 -47t-57.5 -118v-662z" />
<glyph unicode="&#xf3;" horiz-adv-x="1021" d="M0 385v662q0 86 35 159.5t96.5 128t144.5 86t179 31.5q94 0 177 -31.5t144.5 -86t97 -128t35.5 -159.5v-662q0 -86 -35.5 -158.5t-97 -126t-144.5 -83t-177 -29.5q-96 0 -179 29.5t-144.5 83t-96.5 126t-35 158.5zM209 1890h59h207q-6 -25 -10 -42t-1 -41.5t12 -63.5 t28 -107l35 -125l-187 84l-12 45q-18 68 -33.5 106t-31 62.5t-31 41t-35.5 40.5zM260 385q0 -72 57.5 -119t137.5 -47t137 47t57 119v662q0 72 -57 118.5t-137 46.5t-137.5 -47t-57.5 -118v-662z" />
<glyph unicode="&#xf4;" horiz-adv-x="1019" d="M0 385v662q0 86 35 159.5t96.5 128t144.5 86t179 31.5q94 0 177 -31.5t144.5 -86t97 -128t35.5 -159.5v-662q0 -86 -35.5 -158.5t-97 -126t-144.5 -83t-177 -29.5q-96 0 -179 29.5t-144.5 83t-96.5 126t-35 158.5zM88 1520q43 31 79 67.5t69.5 75.5t64.5 78t61 74h187 q31 -35 61.5 -74t64.5 -78t69.5 -76t78.5 -67h-245q0 20 -3.5 33.5t-11.5 25.5t-21.5 24.5t-33.5 34.5l-53 58l-52 -58q-20 -23 -33.5 -36t-21.5 -24t-12 -24.5t-4 -33.5h-244zM260 385q0 -72 57.5 -119t137.5 -47t137 47t57 119v662q0 72 -57 118.5t-137 46.5t-137.5 -47 t-57.5 -118v-662z" />
<glyph unicode="&#xf5;" horiz-adv-x="1021" d="M0 385v662q0 86 35 159.5t96.5 128t144.5 86t179 31.5q94 0 177 -31.5t144.5 -86t97 -128t35.5 -159.5v-662q0 -86 -35.5 -158.5t-97 -126t-144.5 -83t-177 -29.5q-96 0 -179 29.5t-144.5 83t-96.5 126t-35 158.5zM70 1561q39 70 84 111.5t104 55t137 1t185 -49.5 q51 -18 98 -15t84 15q43 14 80 39q-29 -74 -73 -113.5t-94 -55t-99.5 -12.5t-86.5 13q-63 18 -104 37t-83 26t-94 -3.5t-138 -48.5zM260 385q0 -72 57.5 -119t137.5 -47t137 47t57 119v662q0 72 -57 118.5t-137 46.5t-137.5 -47t-57.5 -118v-662z" />
<glyph unicode="&#xf6;" horiz-adv-x="1019" d="M0 385v662q0 86 35 159.5t96.5 128t144.5 86t179 31.5q94 0 177 -31.5t144.5 -86t97 -128t35.5 -159.5v-662q0 -86 -35.5 -158.5t-97 -126t-144.5 -83t-177 -29.5q-96 0 -179 29.5t-144.5 83t-96.5 126t-35 158.5zM170 1538v182l29 29h180l29 -29v-182l-29 -27h-180z M260 385q0 -72 57.5 -119t137.5 -47t137 47t57 119v662q0 72 -57 118.5t-137 46.5t-137.5 -47t-57.5 -118v-662zM510 1538v182l29 29h180l29 -29v-182l-29 -27h-180z" />
<glyph unicode="&#xf8;" horiz-adv-x="1200" d="M0 0q39 33 66.5 66.5t62.5 93.5q-35 47 -54.5 104.5t-19.5 120.5v662q0 86 35 159.5t96.5 128t144.5 86t179 31.5q72 0 137.5 -18.5t118.5 -51.5q4 12 4 24.5v25.5h330q-23 -20 -42.5 -41t-39 -46.5t-41 -59.5t-47.5 -83q35 -76 35 -155v-662q0 -86 -36 -158.5 t-97.5 -126t-144.5 -83t-177 -29.5q-49 0 -96 7t-88 17v-12h-326zM315 504l342 637l7 10q-58 61 -154 61q-80 0 -137.5 -47t-57.5 -118v-543zM412 240q41 -21 98 -21q80 0 137.5 47t57.5 119v399l-267 -493z" />
<glyph unicode="&#xf9;" horiz-adv-x="1136" d="M0 1434h291h125q-14 -25 -27.5 -47.5t-25 -55.5t-18.5 -77t-7 -111v-758q0 -35 14.5 -64.5t39 -52t58 -36t72.5 -13.5q76 0 129.5 49t53.5 117v758q0 68 -7.5 111.5t-18.5 76.5t-24.5 55.5t-27.5 47.5h291h124q-14 -25 -27.5 -47.5t-24.5 -55.5t-18 -77t-7 -111v-758 q0 -84 -35 -156.5t-95.5 -126t-141.5 -83t-171 -29.5q-92 0 -173 29.5t-141.5 83t-95 126t-34.5 156.5v758q0 68 -7.5 111.5t-18.5 76.5t-24.5 55.5t-27.5 47.5zM274 1890h60h207q-6 -25 -10.5 -42t-1.5 -41.5t12.5 -63.5t27.5 -107l35 -125l-186 84l-12 45q-18 68 -34 106 t-31 62.5t-30.5 41t-36.5 40.5z" />
<glyph unicode="&#xfa;" horiz-adv-x="1140" d="M0 1434h291h125q-14 -25 -27.5 -47.5t-25 -55.5t-18.5 -77t-7 -111v-758q0 -35 14.5 -64.5t39 -52t58 -36t72.5 -13.5q76 0 129.5 49t53.5 117v758q0 68 -7.5 111.5t-18.5 76.5t-24.5 55.5t-27.5 47.5h291h124q-14 -25 -27.5 -47.5t-24.5 -55.5t-18 -77t-7 -111v-758 q0 -84 -35 -156.5t-95.5 -126t-141.5 -83t-171 -29.5q-92 0 -173 29.5t-141.5 83t-95 126t-34.5 156.5v758q0 68 -7.5 111.5t-18.5 76.5t-24.5 55.5t-27.5 47.5zM461 1511l35 125q18 68 27 107t12.5 63.5t-1 42t-10.5 41.5h207h60q-20 -25 -36 -41t-31 -40.5t-30.5 -62.5 t-34.5 -106l-12 -45z" />
<glyph unicode="&#xfb;" horiz-adv-x="1140" d="M0 1434h291h125q-14 -25 -27.5 -47.5t-25 -55.5t-18.5 -77t-7 -111v-758q0 -35 14.5 -64.5t39 -52t58 -36t72.5 -13.5q76 0 129.5 49t53.5 117v758q0 68 -7.5 111.5t-18.5 76.5t-24.5 55.5t-27.5 47.5h291h124q-14 -25 -27.5 -47.5t-24.5 -55.5t-18 -77t-7 -111v-758 q0 -84 -35 -156.5t-95.5 -126t-141.5 -83t-171 -29.5q-92 0 -173 29.5t-141.5 83t-95 126t-34.5 156.5v758q0 68 -7.5 111.5t-18.5 76.5t-24.5 55.5t-27.5 47.5zM152 1520q43 31 78.5 67.5t69.5 75.5t64.5 78t61.5 74h186q31 -35 62 -74t64.5 -78t69.5 -76t79 -67h-246 q0 20 -3 33.5t-11.5 25.5t-21.5 24.5t-34 34.5l-53 58l-51 -58q-20 -23 -33.5 -36t-22 -24t-12.5 -24.5t-4 -33.5h-243z" />
<glyph unicode="&#xfc;" horiz-adv-x="1136" d="M0 1434h291h125q-14 -25 -27.5 -47.5t-25 -55.5t-18.5 -77t-7 -111v-758q0 -35 14.5 -64.5t39 -52t58 -36t72.5 -13.5q76 0 129.5 49t53.5 117v758q0 68 -7.5 111.5t-18.5 76.5t-24.5 55.5t-27.5 47.5h291h124q-14 -25 -27.5 -47.5t-24.5 -55.5t-18 -77t-7 -111v-758 q0 -84 -35 -156.5t-95.5 -126t-141.5 -83t-171 -29.5q-92 0 -173 29.5t-141.5 83t-95 126t-34.5 156.5v758q0 68 -7.5 111.5t-18.5 76.5t-24.5 55.5t-27.5 47.5zM238 1538v182l28 29h180l29 -29v-182l-29 -27h-180zM578 1538v182l28 29h180l29 -29v-182l-29 -27h-180z" />
<glyph unicode="&#xfd;" horiz-adv-x="1101" d="M0 1432h426q-20 -76 -18 -136.5t17 -116t40.5 -111.5t54.5 -124q27 68 53.5 124t43 111.5t18.5 116t-19 136.5h426q-33 -35 -65.5 -68t-61.5 -92l-274 -561v-23v-397q0 -68 7 -112t17.5 -76.5t25 -55t26.5 -47.5h-76h-27h-94h-92h-27h-77q14 25 27.5 47.5t24.5 55 t18 76.5t7 112v334v86q-68 141 -136 281.5t-140 279.5q-31 59 -62.5 92t-62.5 68zM274 1890h60h207q-6 -25 -10.5 -42t-1.5 -41.5t12.5 -63.5t27.5 -107l35 -125l-186 84l-12 45q-18 68 -34 106t-31 62.5t-30.5 41t-36.5 40.5z" />
<glyph unicode="&#xfe;" horiz-adv-x="950" d="M0 0q25 39 39 71.5t23.5 65.5t12.5 69t3 85v850q0 49 -3 85t-12.5 68.5t-23.5 64.5t-39 73h393q-31 -55 -47 -96.5t-24 -104.5h165q82 0 155 -32t128 -87t87 -128t32 -155q0 -84 -32 -156.5t-86 -126.5t-128 -86t-156 -32h-170v-137q0 -47 3.5 -84t12.5 -70t24.5 -65.5 t37.5 -71.5h-395zM317 668h170q66 0 114 48t48 113q0 66 -48 114t-114 48h-168q-2 -12 -2 -25.5v-25.5v-272z" />
<glyph unicode="&#xff;" horiz-adv-x="1101" d="M0 1432h426q-20 -76 -18 -136.5t17 -116t40.5 -111.5t54.5 -124q27 68 53.5 124t43 111.5t18.5 116t-19 136.5h426q-33 -35 -65.5 -68t-61.5 -92l-274 -561v-23v-397q0 -68 7 -112t17.5 -76.5t25 -55t26.5 -47.5h-76h-27h-94h-92h-27h-77q14 25 27.5 47.5t24.5 55 t18 76.5t7 112v334v86q-68 141 -136 281.5t-140 279.5q-31 59 -62.5 92t-62.5 68zM238 1538v182l28 29h180l29 -29v-182l-29 -27h-180zM578 1538v182l28 29h180l29 -29v-182l-29 -27h-180z" />
<glyph unicode="&#x152;" horiz-adv-x="1499" d="M0 385v662q0 86 35 159.5t96.5 128t144 86t179.5 31.5q37 0 71.5 -5t67.5 -15h807v-318q-47 27 -99.5 52.5t-140.5 25.5h-274v-324h266q43 0 68.5 11.5t48.5 25.5v-315q-23 14 -48.5 26.5t-68.5 12.5h-266v-389h274q39 0 69 5t57.5 15t54 24.5t59.5 32.5v-317h-807 q-33 -4 -67.5 -8t-71.5 -4q-96 0 -179 29.5t-144.5 83t-96.5 126t-35 158.5zM260 385q0 -72 57.5 -119t137.5 -47q72 0 127 39t65 100v713q-10 63 -65 102t-127 39q-80 0 -137.5 -47t-57.5 -118v-662z" />
<glyph unicode="&#x153;" horiz-adv-x="1499" d="M0 385v662q0 86 35 159.5t96.5 128t144 86t179.5 31.5q37 0 71.5 -5t67.5 -15h807v-318q-47 27 -99.5 52.5t-140.5 25.5h-274v-324h266q43 0 68.5 11.5t48.5 25.5v-315q-23 14 -48.5 26.5t-68.5 12.5h-266v-389h274q39 0 69 5t57.5 15t54 24.5t59.5 32.5v-317h-807 q-33 -4 -67.5 -8t-71.5 -4q-96 0 -179 29.5t-144.5 83t-96.5 126t-35 158.5zM260 385q0 -72 57.5 -119t137.5 -47q72 0 127 39t65 100v713q-10 63 -65 102t-127 39q-80 0 -137.5 -47t-57.5 -118v-662z" />
<glyph unicode="&#x178;" horiz-adv-x="1101" d="M0 1432h426q-20 -76 -18 -136.5t17 -116t40.5 -111.5t54.5 -124q27 68 53.5 124t43 111.5t18.5 116t-19 136.5h426q-33 -35 -65.5 -68t-61.5 -92l-274 -561v-23v-397q0 -68 7 -112t17.5 -76.5t25 -55t26.5 -47.5h-76h-27h-94h-92h-27h-77q14 25 27.5 47.5t24.5 55 t18 76.5t7 112v334v86q-68 141 -136 281.5t-140 279.5q-31 59 -62.5 92t-62.5 68zM238 1538v182l28 29h180l29 -29v-182l-29 -27h-180zM578 1538v182l28 29h180l29 -29v-182l-29 -27h-180z" />
<glyph unicode="&#x2c6;" horiz-adv-x="729" d="M45 1520q43 31 79 67.5t69.5 75.5t64.5 78t61 74h187q31 -35 61.5 -74t64.5 -78t69.5 -76t78.5 -67h-245q0 20 -3.5 33.5t-11.5 25.5t-21.5 24.5t-33.5 34.5l-53 58l-52 -58q-20 -23 -33.5 -36t-21.5 -24t-12 -24.5t-4 -33.5h-244z" />
<glyph unicode="&#x2dc;" horiz-adv-x="866" d="M156 1561q39 70 84 111.5t104 55t137 1t185 -49.5q51 -18 98 -15t84 15q43 14 80 39q-29 -74 -73 -113.5t-94 -55t-99.5 -12.5t-86.5 13q-63 18 -104 37t-83 26t-94 -3.5t-138 -48.5z" />
<glyph unicode="&#x2000;" horiz-adv-x="946" />
<glyph unicode="&#x2001;" horiz-adv-x="1892" />
<glyph unicode="&#x2002;" horiz-adv-x="946" />
<glyph unicode="&#x2003;" horiz-adv-x="1892" />
<glyph unicode="&#x2004;" horiz-adv-x="630" />
<glyph unicode="&#x2005;" horiz-adv-x="473" />
<glyph unicode="&#x2006;" horiz-adv-x="315" />
<glyph unicode="&#x2007;" horiz-adv-x="315" />
<glyph unicode="&#x2008;" horiz-adv-x="236" />
<glyph unicode="&#x2009;" horiz-adv-x="378" />
<glyph unicode="&#x200a;" horiz-adv-x="105" />
<glyph unicode="&#x2010;" horiz-adv-x="786" d="M0 621v41v245q82 -41 184 -41h293q102 0 185 41v-286q-82 41 -185 41h-293q-102 0 -184 -41z" />
<glyph unicode="&#x2011;" horiz-adv-x="786" d="M0 621v41v245q82 -41 184 -41h293q102 0 185 41v-286q-82 41 -185 41h-293q-102 0 -184 -41z" />
<glyph unicode="&#x2012;" horiz-adv-x="786" d="M0 621v41v245q82 -41 184 -41h293q102 0 185 41v-286q-82 41 -185 41h-293q-102 0 -184 -41z" />
<glyph unicode="&#x2013;" horiz-adv-x="1148" d="M0 621v41v245q127 -41 285 -41h453q158 0 286 41v-286q-127 41 -286 41h-453q-158 0 -285 -41z" />
<glyph unicode="&#x2014;" horiz-adv-x="2172" d="M0 621v41v245q254 -41 569 -41h907q315 0 572 41v-286q-254 41 -572 41h-907q-315 0 -569 -41z" />
<glyph unicode="&#x2018;" horiz-adv-x="387" d="M0 1432h61h207q-14 -25 -20 -47.5t-9 -55.5t-3 -77v-111v-125l-164 84v45q0 68 -6.5 111.5t-16.5 74.5t-23.5 53.5t-25.5 47.5z" />
<glyph unicode="&#x2019;" horiz-adv-x="376" d="M0 1432h207h61q-12 -25 -25.5 -47.5t-23.5 -53.5t-16 -75t-6 -111v-45l-164 -84v125v111.5t-3 76.5t-9.5 55.5t-20.5 47.5z" />
<glyph unicode="&#x201c;" horiz-adv-x="741" d="M0 1432h61h207q-14 -25 -20 -47.5t-9 -55.5t-3 -77v-111v-125l-164 84v45q0 68 -6.5 111.5t-16.5 74.5t-23.5 53.5t-25.5 47.5zM354 1432h62h207q-14 -25 -20.5 -47.5t-9.5 -55.5t-3 -77v-111v-125l-164 84v45q0 68 -6 111.5t-16.5 74.5t-23.5 53.5t-26 47.5z" />
<glyph unicode="&#x201d;" horiz-adv-x="731" d="M0 1432h207h61q-12 -25 -25.5 -47.5t-23.5 -53.5t-16 -75t-6 -111v-45l-164 -84v125v111.5t-3 76.5t-9.5 55.5t-20.5 47.5zM354 1432h207h62q-12 -25 -25.5 -47.5t-24 -53.5t-16.5 -75t-6 -111v-45l-164 -84v125v111.5t-3 76.5t-9 55.5t-21 47.5z" />
<glyph unicode="&#x2022;" horiz-adv-x="595" d="M66 754q0 43 15 79.5t43 64.5t65.5 44t80.5 16q86 0 145.5 -59t59.5 -145q0 -43 -16.5 -81t-44 -65.5t-64.5 -44t-80 -16.5t-80.5 16.5t-65.5 44t-43 65.5t-15 81z" />
<glyph unicode="&#x2026;" horiz-adv-x="1159" d="M0 27v182l29 29h180l29 -29v-182l-29 -27h-180zM397 27v182l29 29h180l29 -29v-182l-29 -27h-180zM799 27v182l28 29h181l28 -29v-182l-28 -27h-181z" />
<glyph unicode="&#x202f;" horiz-adv-x="378" />
<glyph unicode="&#x203a;" horiz-adv-x="548" />
<glyph unicode="&#x205f;" horiz-adv-x="473" />
<glyph unicode="&#x20ac;" horiz-adv-x="1003" d="M-61 672q6 16 13 33.5t17.5 33t27.5 24.5t42 9q20 0 31 -2q0 10 1 24.5t0 28t-5.5 22.5t-16.5 9q-14 0 -28.5 -7t-28.5 -16q-16 -8 -33 -20q12 45 21.5 69.5t20.5 42t26.5 34t42.5 44.5q0 88 30.5 167t85 136.5t130 91.5t167.5 34q72 0 136.5 -24t116.5 -65t89 -99 t54 -126q10 -49 13 -72.5t23 -58.5h-299q23 41 23 76q0 57 -47 93t-109 36q-57 0 -91 -20.5t-52 -53.5t-24.5 -76t-6.5 -86q35 -18 66 -38.5t61.5 -38t64.5 -27.5t77 -10q37 0 82 13t100 42q-74 -129 -140.5 -182.5t-134.5 -53.5q-41 0 -85 16.5t-91 43.5v-60q39 -27 78 -45 t92 -18q37 0 82 12.5t101 40.5q-74 -131 -139.5 -183t-135.5 -52q-18 0 -37.5 4t-40.5 10q0 -88 39 -151.5t135 -63.5q61 0 108.5 37t47.5 94q0 35 -23 76h299q-10 -18 -15 -31.5t-8 -28t-5 -32t-8 -41.5q-33 -135 -141.5 -211t-254.5 -76q-84 0 -162.5 30.5t-132.5 86.5 q-51 51 -76.5 105t-34.5 116.5t-8 135.5t1 163q-33 25 -48.5 40t-29.5 15q-18 0 -53 -20z" />
<glyph unicode="&#x2122;" horiz-adv-x="1224" d="M0 1268v98v59h156h120h156v-59v-98q-25 14 -51.5 26.5t-93.5 12.5h-11v-451q0 -68 12.5 -95.5t26.5 -49.5h-53h-92h-51q14 23 25.5 50t11.5 95v451h-11q-66 0 -93 -12.5t-52 -26.5zM459 711q14 23 26.5 50t12.5 95v424q0 68 -12.5 95.5t-26.5 49.5h246l75 -421l86 421 h238q-14 -23 -26.5 -50t-12.5 -95v-424q0 -68 12.5 -95.5t26.5 -49.5h-51h-95h-51q14 23 26.5 50t12.5 95v395l-106 -481q0 -10 8 -27h-135q4 8 6 14.5t4 12.5l-107 481v-395q0 -68 12.5 -95.5t26.5 -49.5h-196z" />
<glyph unicode="&#xe000;" horiz-adv-x="1433" d="M0 0v1434h1434v-1434h-1434z" />
</font>
</defs>
</svg>
